<svg version="1.2" xmlns="http://www.w3.org/2000/svg" viewBox="0 0 512 512" width="512" height="512">
	<style>
		.s0 { fill: #010101 } 
	</style>
	<path class="s0" d="m292.47 143c0 41.95 0 83.39 0 125.93 2.02-1.86 3.33-2.98 4.55-4.2 20.98-20.96 41.94-41.95 62.94-62.89 3.42-3.41 6.89-6.79 10.58-9.9 11.86-10.04 28.84-9.22 39.82 1.77 10.96 10.97 11.75 27.98 1.67 39.82-3.66 4.31-7.66 8.35-11.65 12.36q-57.92 58.02-115.87 116.01c-12.86 12.87-31.05 12.85-43.93-0.04-38.85-38.91-77.72-77.81-116.54-116.75-4-4.01-8.02-8.03-11.6-12.41-9.46-11.57-8.31-28.38 2.41-39.05 10.7-10.66 27.56-11.77 39.06-2.28 4.87 4.02 9.34 8.54 13.83 13 20.3 20.23 40.54 40.52 60.82 60.77 1.12 1.13 2.33 2.17 4.21 3.92 0-2.52 0-4.11 0-5.7q0-93.23 0.01-186.46c0.01-6-0.02-12 0.28-17.99 0.77-15.72 13.79-27.91 29.58-27.89 15.8 0.02 29.05 12.16 29.33 28 0.5 27.82 0.37 55.65 0.5 83.98z"/>
	<path class="s0" d="m77.06 376.21c0.73 5.47 1.73 10.56 1.88 15.66 0.28 9.82 0.08 19.64 0.08 29.82 122.19 0 244.21 0 366.76 0 0-8.8-0.11-17.58 0.04-26.36 0.1-5.31 0.01-10.74 1.05-15.9 2.58-12.82 14.98-21.39 28.64-20.41 12.96 0.93 24.18 11.74 24.39 24.74 0.39 23.15 0.36 46.32-0.01 69.47-0.19 12.21-12.27 23.34-24.7 23.75-4.33 0.14-8.67 0.06-13 0.06q-205.21 0-410.43-0.01c-15.78 0-27.7-11.86-27.73-27.69-0.04-19.66-0.13-39.33 0.17-58.99 0.08-5.07 0.59-10.5 2.51-15.09 4.29-10.22 12.61-15.83 23.74-16.2 12.44-0.42 21.21 5.59 26.61 17.15z"/>
</svg>