<svg width="3819" height="1084" viewBox="0 0 3819 1084" fill="none" xmlns="http://www.w3.org/2000/svg">
<path fill-rule="evenodd" clip-rule="evenodd" d="M1994.39 54.4391C1994.08 55.2301 1992.49 56.1731 1990.85 56.5331C1989.21 56.8941 1987.62 57.8241 1987.32 58.6001C1987.02 59.3761 1985.03 60.2911 1982.89 60.6331C1980.56 61.0061 1979 61.8071 1979 62.6281C1979 63.4691 1977.9 64.0001 1976.15 64.0001C1974.59 64.0001 1972.31 64.8651 1971.09 65.9231C1969.87 66.9811 1967.1 68.1451 1964.94 68.5111C1962.53 68.9181 1961 69.7241 1961 70.5881C1961 71.3651 1960.06 72.0001 1958.91 72.0001C1957.65 72.0001 1956.6 72.8031 1956.29 74.0001C1955.9 75.5071 1954.93 76.0001 1952.35 76.0001C1950.24 76.0001 1948.72 76.5721 1948.36 77.5001C1948.05 78.3251 1946.74 79.0001 1945.46 79.0001C1944.19 79.0001 1942.47 79.6751 1941.64 80.5001C1940.82 81.3251 1939.66 82.0001 1939.07 82.0001C1938.48 82.0001 1938 82.4501 1938 83.0001C1938 83.5501 1936.42 84.0001 1934.5 84.0001C1932.06 84.0001 1931 84.4521 1931 85.5001C1931 86.4331 1930.06 87.0001 1928.5 87.0001H1926V261.5C1926 377.167 1926.34 436 1927 436C1927.55 436 1928 436.675 1928 437.5C1928 438.805 1932.52 438.999 1962.75 438.992L1997.5 438.984L1998.75 436.293C1999.74 434.17 2000 394.064 2000 246.426C2000 143.479 1999.72 57.8441 1999.38 56.1251C1998.71 52.7891 1995.44 51.6851 1994.39 54.4391ZM2162 53.7071C2161.18 54.0291 2160.14 54.9021 2159.7 55.6471C2159.26 56.3911 2158.25 57.0001 2157.45 57.0001C2156.65 57.0001 2155.1 57.9001 2154 59.0001C2152.9 60.1001 2150.91 61.0001 2149.57 61.0001C2148.24 61.0001 2146.54 61.6061 2145.8 62.3471C2145.06 63.0871 2142.77 64.0071 2140.73 64.3921C2138.58 64.7941 2137 65.6711 2137 66.4571C2137 67.2731 2135.39 68.0971 2133 68.5001C2130.54 68.9151 2129 69.7201 2129 70.5881C2129 71.3911 2128.02 72.0001 2126.72 72.0001C2125.47 72.0001 2123.79 72.9001 2123 74.0001C2122.21 75.1001 2120.53 76.0001 2119.28 76.0001C2117.92 76.0001 2117 76.6051 2117 77.5001C2117 78.3741 2116.09 79.0001 2114.82 79.0001C2111.4 79.0001 2106 81.2671 2106 82.7011C2106 83.5191 2104.7 84.0001 2102.5 84.0001C2100.13 84.0001 2099 84.4621 2099 85.4301C2099 86.2171 2097.99 87.0051 2096.75 87.1801L2094.5 87.5001L2094.24 123.25L2093.98 159H2072.57C2060.8 159 2050.45 159.273 2049.58 159.607C2048.18 160.144 2048 164.072 2048 193.525C2048 211.846 2048.27 227.548 2048.61 228.418C2049.13 229.795 2052.11 230 2071.59 230H2093.96L2094.23 307.081C2094.47 376.467 2094.66 384.279 2096.1 385.334C2097.06 386.035 2098 388.818 2098.43 392.253C2098.92 396.231 2099.58 398 2100.57 398C2101.52 398 2102 399.104 2102 401.278C2102 403.318 2102.75 405.202 2104 406.268C2105.1 407.21 2106 408.899 2106 410.022C2106 411.144 2106.68 412.322 2107.5 412.638C2108.32 412.955 2109 413.769 2109 414.446C2109 415.124 2110.12 416.192 2111.5 416.818C2112.88 417.445 2114 418.642 2114 419.479C2114 420.315 2114.68 421 2115.5 421C2116.32 421 2117 421.645 2117 422.433C2117 423.221 2117.9 424.151 2119 424.5C2120.1 424.849 2121 425.779 2121 426.567C2121 427.355 2121.66 428 2122.47 428C2123.27 428 2124.41 428.9 2125 430C2125.59 431.1 2126.5 432 2127.03 432C2127.57 432 2128.9 432.9 2130 434C2131.1 435.1 2133.12 436 2134.5 436C2135.88 436 2137 436.575 2137 437.279C2137 438.092 2139.59 438.966 2144.13 439.68C2148.05 440.298 2151.63 441.41 2152.09 442.151C2153.15 443.865 2185.76 443.993 2186.83 442.288C2187.81 440.722 2194.8 439.012 2200.25 439.006C2203.8 439.001 2205 438.622 2205 437.5C2205 436.424 2206.1 436 2208.88 436C2211.85 436 2212.88 435.554 2213.26 434.106C2213.55 432.985 2215.03 431.933 2216.88 431.527C2218.59 431.15 2220 430.202 2220 429.421C2220 428.572 2221.01 428 2222.5 428C2224.84 428 2225 427.676 2225 422.86C2225 419.39 2225.5 417.355 2226.54 416.596C2227.71 415.738 2228.22 412.555 2228.69 403.15C2229.08 395.497 2229.78 390.362 2230.55 389.597C2231.34 388.799 2231.91 384.051 2232.14 376.146C2232.39 367.493 2232.88 363.691 2233.81 363.12C2234.52 362.676 2235.38 359.767 2235.7 356.656C2236.22 351.566 2236.09 351.002 2234.39 351.022C2233.35 351.034 2231.38 351.924 2230 353C2228.62 354.076 2226.94 354.966 2226.25 354.978C2225.56 354.99 2225 355.685 2225 356.521C2225 357.358 2223.88 358.555 2222.5 359.182C2221.12 359.808 2220 360.924 2220 361.661C2220 362.423 2218.92 363 2217.5 363C2215.94 363 2215 363.567 2215 364.5C2215 365.471 2214.03 366 2212.24 366C2210.56 366 2208.99 366.785 2208.23 368C2207.08 369.844 2205.9 370 2193.11 370C2180.07 370 2179.2 369.879 2178.71 368C2178.42 366.9 2177.47 366 2176.59 366C2175.72 366 2175 365.325 2175 364.5C2175 363.675 2174.32 363 2173.5 363C2172.5 363 2172 362.004 2172 360.037C2172 358.407 2171.1 354.791 2170 352C2168.08 347.131 2168 344.568 2168 288.463V230H2199.89C2228.05 230 2231.86 229.815 2232.39 228.418C2232.73 227.548 2233 212.039 2233 193.953C2233 162.466 2232.92 161.026 2231.07 160.035C2229.85 159.386 2217.73 159 2198.57 159H2168.02L2167.76 106.25C2167.5 54.3251 2167.47 53.4971 2165.5 53.3101C2164.4 53.2061 2162.82 53.3851 2162 53.7071ZM2368.5 53.7171C2367.4 53.9951 2366.14 54.8481 2365.7 55.6111C2365.26 56.3751 2364.02 57.0001 2362.95 57.0001C2361.88 57.0001 2360.1 57.9001 2359 59.0001C2357.89 60.1111 2355.67 61.0001 2354 61.0001C2352.12 61.0001 2351 61.5141 2351 62.3721C2351 63.2001 2349.41 63.9981 2347 64.3841C2344.61 64.7671 2343 65.5701 2343 66.3841C2343 67.1981 2341.39 68.0011 2339 68.3841C2336.58 68.7711 2335 69.5671 2335 70.4011C2335 71.1821 2333.49 72.0611 2331.5 72.4341C2329.4 72.8271 2328 73.6751 2328 74.5451C2328 75.5441 2326.89 76.0001 2324.47 76.0001C2322.36 76.0001 2320.72 76.5661 2320.4 77.4021C2320.1 78.1731 2318.32 79.0931 2316.43 79.4471C2313.91 79.9191 2313 80.6111 2313 82.0451C2313 83.6591 2312.3 84.0001 2309 84.0001C2306.11 84.0001 2305 84.4171 2305 85.5001C2305 86.3561 2304.1 87.0001 2302.91 87.0001C2301.65 87.0001 2300.6 87.8031 2300.29 89.0001C2300 90.1001 2299.37 91.0001 2298.88 91.0001C2298.38 91.0001 2298 164.35 2298 263.5C2298 432.084 2298.04 436 2299.89 436C2300.93 436 2302.05 436.675 2302.36 437.5C2303.19 439.662 2367.46 439.77 2368.7 437.611C2369.14 436.848 2370.4 436.054 2371.5 435.848C2373.48 435.477 2373.51 434.482 2374 348.2C2374.42 274.563 2374.72 260.79 2375.91 260.055C2376.74 259.541 2377.51 256.894 2377.78 253.592C2378.1 249.736 2378.68 248 2379.62 248C2380.42 248 2381 246.959 2381 245.523C2381 243.984 2381.95 242.426 2383.5 241.408C2384.88 240.507 2386 239.147 2386 238.385C2386 237.623 2386.42 237 2386.93 237C2387.45 237 2388.15 236.1 2388.5 235C2388.85 233.9 2389.79 233 2390.6 233C2391.4 233 2392.31 232.369 2392.6 231.598C2392.9 230.827 2394.73 229.898 2396.68 229.532C2398.99 229.098 2400.4 228.197 2400.73 226.934C2401.2 225.111 2402.28 225 2419.55 225C2436.88 225 2437.9 225.106 2438.49 226.965C2438.88 228.2 2440.37 229.166 2442.49 229.564C2444.34 229.912 2446.1 230.827 2446.4 231.598C2446.69 232.369 2447.45 233 2448.08 233C2449.88 233 2453.96 237.321 2453.98 239.25C2453.99 240.212 2454.62 241 2455.39 241C2456.18 241 2457.06 242.495 2457.43 244.5C2457.8 246.425 2458.68 248 2459.4 248C2460.33 248 2460.87 250.352 2461.26 256.037C2461.57 260.501 2462.41 264.792 2463.16 265.69C2464.25 267.007 2464.56 282.909 2464.81 351.653C2465.09 426.072 2465.3 436 2466.63 436C2467.46 436 2468.82 436.675 2469.64 437.5C2471.9 439.758 2537 439.758 2537 437.5C2537 436.675 2537.45 436 2538 436C2539.27 436 2539.32 257.459 2538.05 247.608C2537.56 243.817 2536.56 240.346 2535.83 239.895C2534.94 239.346 2534.38 236.237 2534.15 230.537C2533.88 224.062 2533.46 222 2532.4 222C2531.52 222 2531 220.92 2531 219.125C2531 214.159 2529.8 210 2528.38 210C2527.46 210 2527 208.789 2527 206.406C2527 203.707 2526.52 202.688 2525.08 202.312C2524.03 202.036 2522.9 200.729 2522.57 199.406C2522.23 198.082 2521.29 197 2520.48 197C2519.45 197 2519 195.924 2519 193.5C2519 191.056 2518.55 190 2517.5 190C2516.68 190 2516 189.325 2516 188.5C2516 187.675 2515.15 187 2514.11 187C2512.75 187 2512.04 186.033 2511.57 183.5C2511.18 181.452 2510.32 180 2509.49 180C2508.71 180 2507.59 179.105 2507.01 178.012C2506.42 176.918 2504.83 175.745 2503.47 175.403C2502.11 175.062 2501 174.157 2501 173.392C2501 172.626 2500.06 172 2498.91 172C2497.66 172 2496.6 171.198 2496.3 170.025C2495.96 168.75 2494.6 167.828 2492.46 167.426C2490.63 167.084 2488.9 166.173 2488.6 165.402C2488.28 164.566 2486.64 164 2484.53 164C2481.75 164 2481 163.604 2481 162.128C2481 160.724 2480.02 160.099 2477.08 159.629C2474.93 159.285 2473.01 158.536 2472.82 157.965C2472.63 157.393 2468.51 156.516 2463.65 156.016C2458.8 155.515 2454.18 154.564 2453.38 153.901C2451.26 152.143 2425.84 152.059 2423.74 153.803C2422.87 154.519 2418.2 155.515 2413.35 156.016C2408.49 156.516 2404.37 157.393 2404.18 157.965C2403.99 158.536 2402.07 159.285 2399.92 159.629C2396.98 160.099 2396 160.724 2396 162.128C2396 163.604 2395.25 164 2392.47 164C2390.36 164 2388.72 164.566 2388.4 165.402C2388.1 166.173 2386.32 167.093 2384.43 167.447C2381.91 167.919 2381 168.611 2381 170.045C2381 171.464 2380.31 172 2378.5 172C2376.83 172 2376 172.556 2376 173.667C2376 174.583 2375.66 174.996 2375.25 174.584C2374.84 174.172 2374.28 146.765 2374 113.681C2373.46 48.8151 2373.79 52.3791 2368.5 53.7171ZM990 252C990 374 990.337 436 991 436C991.55 436 992 436.675 992 437.5C992 438.805 996.556 439 1027 439C1054.47 439 1062 438.729 1062 437.741C1062 437.048 1062.9 435.919 1064 435.232C1065.97 434.001 1066 432.9 1066 358.492V283H1139H1212V359.5C1212 435.333 1212.02 436 1214 436C1215.11 436 1216 436.667 1216 437.5C1216 438.804 1220.44 439 1250 439C1279.56 439 1284 438.804 1284 437.5C1284 436.567 1284.94 436 1286.5 436H1289V252.519V69.0381L1286.75 68.4901C1285.51 68.1891 1268.3 68.0681 1248.5 68.2211L1212.5 68.5001L1211.98 137.5C1211.7 175.45 1211.36 206.615 1211.23 206.757C1211.11 206.898 1178.49 206.898 1138.75 206.757L1066.5 206.5L1066.24 137.865L1065.99 69.2301L1063.74 68.6281C1062.51 68.2981 1045.41 68.0211 1025.75 68.0141L990 68.0001V252ZM1458.53 152.682C1455.79 152.927 1453.03 153.564 1452.38 154.097C1451.74 154.629 1447.23 155.517 1442.36 156.068C1437.49 156.62 1433.35 157.506 1433.17 158.037C1432.98 158.568 1431.07 159.285 1428.92 159.629C1426.59 160.002 1425 160.807 1425 161.616C1425 162.434 1423.38 163.236 1420.93 163.627C1418.7 163.984 1416.25 164.89 1415.5 165.639C1414.76 166.387 1413.21 167 1412.07 167C1410.93 167 1410 167.45 1410 168C1410 168.55 1409.32 169 1408.5 169C1407.68 169 1407 169.675 1407 170.5C1407 171.433 1406.06 172 1404.5 172C1402.94 172 1402 172.567 1402 173.5C1402 174.325 1401.14 175 1400.08 175C1397.1 175 1395 176.078 1395 177.607C1395 178.373 1394.32 179 1393.5 179C1392.68 179 1392 179.686 1392 180.525C1392 181.363 1390.88 182.477 1389.5 183C1388.12 183.523 1387 184.637 1387 185.475C1387 186.314 1386.32 187 1385.5 187C1384.68 187 1384 187.645 1384 188.433C1384 189.221 1383.1 190.151 1382 190.5C1380.9 190.849 1380 192.004 1380 193.067C1380 194.13 1379.32 195 1378.5 195C1377.68 195 1377 195.337 1377 195.75C1377 196.163 1375.87 197.807 1374.5 199.406C1373.12 201.004 1372 202.916 1372 203.656C1372 204.395 1371.33 205 1370.52 205C1369.71 205 1368.76 206.125 1368.41 207.5C1368.07 208.875 1367.2 210 1366.48 210C1365.74 210 1364.88 211.724 1364.5 214C1364.1 216.386 1363.27 218 1362.46 218C1361.69 218 1360.8 219.527 1360.43 221.5C1360.06 223.505 1359.18 225 1358.39 225C1357.44 225 1357 226.254 1357 229C1357 231.678 1356.56 233 1355.66 233C1354.84 233 1353.82 235.245 1353.04 238.75C1352.33 241.913 1351.27 244.811 1350.67 245.191C1350.06 245.571 1349.39 249.059 1349.17 252.941C1348.95 256.824 1348.43 260 1348 260C1346.48 260 1345.74 264.74 1345.12 278.417C1344.69 288.199 1344.13 292.458 1343.25 292.75C1341.34 293.386 1341.56 304.619 1343.5 305.362C1344.73 305.832 1345 308.291 1345 318.819C1345 330.784 1346.12 338 1347.97 338C1348.39 338 1348.96 341.655 1349.21 346.122C1349.57 352.306 1350.08 354.465 1351.34 355.171C1352.25 355.682 1353.01 357.315 1353.01 358.8C1353.04 363.035 1354.11 366 1355.62 366C1356.57 366 1357 367.266 1357 370.031C1357 372.616 1357.52 374.261 1358.44 374.615C1359.23 374.919 1360.17 376.51 1360.53 378.151C1360.89 379.792 1361.82 381.378 1362.59 381.675C1363.37 381.971 1364 382.855 1364 383.638C1364 384.422 1364.6 385.292 1365.33 385.573C1366.06 385.854 1367.27 387.64 1368.02 389.542C1368.76 391.444 1369.96 393 1370.69 393C1371.42 393 1372 394.102 1372 395.5C1372 397.056 1372.57 398 1373.5 398C1374.32 398 1375 398.645 1375 399.433C1375 400.221 1375.88 401.144 1376.95 401.484C1378.02 401.824 1379.18 402.979 1379.52 404.051C1379.86 405.123 1380.78 406 1381.57 406C1382.36 406 1383 406.645 1383 407.433C1383 408.221 1383.9 409.151 1385 409.5C1386.1 409.849 1387 410.779 1387 411.567C1387 412.355 1387.68 413 1388.5 413C1389.32 413 1390 413.482 1390 414.071C1390 415.456 1392.54 418 1393.93 418C1394.52 418 1395 418.675 1395 419.5C1395 420.433 1395.94 421 1397.5 421C1399.06 421 1400 421.567 1400 422.5C1400 423.325 1400.86 424 1401.92 424C1404.83 424 1407 425.067 1407 426.496C1407 427.201 1408.53 428.065 1410.4 428.416C1412.27 428.767 1414.05 429.692 1414.35 430.472C1414.65 431.252 1416.49 432.19 1418.45 432.556C1420.49 432.94 1422 433.812 1422 434.611C1422 435.628 1423.47 436 1427.5 436C1431.46 436 1433 436.379 1433 437.356C1433 438.309 1435.11 438.909 1440.08 439.371C1443.97 439.732 1448.58 440.791 1450.33 441.722C1453 443.15 1456.69 443.423 1473.79 443.458C1488.47 443.488 1494.28 443.17 1494.81 442.306C1495.74 440.8 1503.17 439.057 1508.78 439.024C1511.65 439.008 1513.25 438.504 1513.64 437.5C1514.04 436.449 1515.68 436 1519.11 436C1522.67 436 1524.54 435.455 1526 434C1527.1 432.9 1529.12 432 1530.5 432C1532.33 432 1533 431.467 1533 430C1533 428.371 1533.67 428 1536.59 428C1539.35 428 1540.31 427.532 1540.71 426C1541.1 424.497 1542.07 424 1544.62 424C1546.96 424 1548 423.538 1548 422.5C1548 421.644 1548.9 421 1550.09 421C1551.32 421 1552.4 420.201 1552.69 419.069C1552.97 418.007 1553.83 416.896 1554.6 416.601C1555.37 416.305 1556 415.374 1556 414.531C1556 413.688 1556.86 413 1557.92 413C1560.86 413 1563 411.929 1563 410.46C1563 409.731 1563.88 408.856 1564.95 408.516C1566.02 408.176 1567.18 407.021 1567.52 405.949C1567.86 404.877 1568.73 404 1569.45 404C1570.18 404 1571.01 403.067 1571.31 401.927C1572.15 398.709 1570.91 393 1569.37 393C1568.62 393 1568 392.283 1568 391.406C1568 390.53 1567.1 389.577 1566 389.29C1564.9 389.002 1564 388.144 1564 387.383C1564 386.623 1563.4 386 1562.66 386C1561.92 386 1560 384.876 1558.41 383.501C1556.81 382.127 1554.94 381.002 1554.25 381.001C1553.56 381.001 1553 380.325 1553 379.5C1553 378.675 1552.15 378 1551.11 378C1549.93 378 1548.98 377.064 1548.59 375.5C1548.24 374.125 1547.34 373 1546.59 373C1545.83 373 1544.95 372.325 1544.64 371.5C1544.32 370.675 1543.43 370 1542.65 370C1541.87 370 1541 369.1 1540.71 368C1540.4 366.803 1539.35 366 1538.09 366C1536.9 366 1536 365.356 1536 364.5C1536 363.675 1535.32 363 1534.5 363C1533.68 363 1533 362.325 1533 361.5C1533 360.675 1532.53 360 1531.95 360C1531.38 360 1529.78 358.875 1528.41 357.5C1527.03 356.125 1525.14 354.994 1524.2 354.986C1523.27 354.979 1521.53 354.713 1520.35 354.395C1518.77 353.973 1518.02 354.351 1517.56 355.801C1517.22 356.892 1516.05 358.016 1514.97 358.298C1513.8 358.603 1513 359.666 1513 360.906C1513 362.632 1512.39 363 1509.5 363C1507.06 363 1506 363.452 1506 364.5C1506 365.555 1504.93 366 1502.41 366C1499.71 366 1498.69 366.477 1498.31 367.907C1497.87 369.589 1496.45 369.9 1486.28 370.535C1469.72 371.569 1454.41 370.407 1451.93 367.928C1450.67 366.667 1448.62 366 1446 366C1443.11 366 1442 365.583 1442 364.5C1442 363.667 1441.11 363 1440 363C1438.64 363 1438 362.333 1438 360.906C1438 359.654 1437.2 358.603 1436 358.29C1434.9 358.002 1434 357.144 1434 356.383C1434 355.623 1433.1 355 1432 355C1430.67 355 1430 354.333 1430 353C1430 351.9 1429.37 351 1428.61 351C1427.82 351 1426.94 349.511 1426.57 347.527C1426.21 345.617 1425.2 343.653 1424.33 343.163C1423.3 342.587 1422.55 340.361 1422.22 336.885C1421.94 333.923 1421.06 330.51 1420.27 329.299C1419.46 328.057 1419.12 326.207 1419.48 325.055C1420.13 323.022 1420.55 323.01 1501.32 322.756L1582.5 322.5L1583.14 316.537C1583.49 313.257 1584.28 310.407 1584.89 310.203C1586.39 309.702 1586.41 290.304 1584.91 289.804C1584.23 289.576 1583.57 283.632 1583.14 273.877C1582.58 261.075 1582.15 258.007 1580.73 256.585C1579.56 255.415 1579 253.265 1579 249.929C1579 246.325 1578.62 245 1577.57 245C1576.59 245 1575.93 243.265 1575.45 239.431C1574.97 235.595 1574.17 233.498 1572.88 232.691C1571.47 231.811 1571 230.331 1571 226.759C1571 223.195 1570.62 222 1569.5 222C1568.59 222 1568 221.071 1568 219.635C1568 218.334 1567.16 216.197 1566.14 214.885C1565.11 213.573 1563.93 211.396 1563.51 210.047C1563.08 208.697 1562.12 206.978 1561.37 206.225C1560.62 205.473 1560 204.214 1560 203.429C1560 202.643 1559.1 202 1558 202C1556.67 202 1556 201.333 1556 200C1556 198.889 1555.33 198 1554.5 198C1553.65 198 1553 197.106 1553 195.952C1553 194.826 1551.88 192.862 1550.5 191.588C1549.12 190.313 1548 188.76 1548 188.135C1548 187.511 1547.32 187 1546.5 187C1545.68 187 1545 186.283 1545 185.406C1545 184.53 1544.14 183.588 1543.09 183.314C1542.04 183.04 1540.96 181.957 1540.69 180.908C1540.4 179.797 1539.31 179 1538.09 179C1536.67 179 1536 178.363 1536 177C1536 175.444 1535.33 175 1533 175C1531 175 1530 174.5 1530 173.5C1530 172.675 1529.13 172 1528.07 172C1527 172 1525.85 171.116 1525.51 170.035C1525.12 168.789 1523.63 167.833 1521.44 167.423C1519.48 167.055 1518 166.18 1518 165.389C1518 164.461 1516.81 164 1514.41 164C1511.65 164 1510.69 163.532 1510.29 162C1509.9 160.493 1508.93 160 1506.35 160C1504.32 160 1502.72 159.424 1502.39 158.571C1502.03 157.631 1499.56 156.921 1495.17 156.496C1491.5 156.141 1486.17 155.206 1483.32 154.419C1477.52 152.813 1466.04 152.009 1458.53 152.682ZM1740.48 152.878C1736.62 153.272 1732.91 153.935 1732.24 154.351C1731.57 154.767 1725.57 155.548 1718.9 156.088C1710.68 156.754 1706.32 157.54 1705.32 158.535C1704.52 159.341 1702.65 160.006 1701.18 160.014C1696.96 160.035 1694 161.11 1694 162.617C1694 163.566 1692.73 164 1689.97 164C1687.31 164 1685.74 164.51 1685.36 165.5C1685.04 166.344 1683.55 167 1681.96 167C1677.9 167 1674 168.702 1674 170.475C1674 171.587 1672.92 172 1670 172C1667.11 172 1666 172.417 1666 173.5C1666 174.548 1664.94 175 1662.5 175C1659.67 175 1659 175.381 1659 177C1659 178.403 1658.33 179.005 1656.75 179.015C1653.43 179.038 1652.11 180.223 1651.39 183.8C1650.9 186.235 1651.1 187 1652.21 187C1653.04 187 1654.26 188.754 1655 191C1655.73 193.2 1656.92 195 1657.66 195C1658.53 195 1659 196.241 1659 198.5C1659 200.944 1659.45 202 1660.5 202C1661.36 202 1662 202.899 1662 204.094C1662 205.338 1662.8 206.397 1663.97 206.704C1665.25 207.037 1666.17 208.397 1666.57 210.541C1666.92 212.367 1667.8 214.094 1668.54 214.378C1669.28 214.662 1670.19 216.494 1670.56 218.447C1670.94 220.492 1671.81 222 1672.61 222C1673.48 222 1674 223.102 1674 224.965C1674 226.906 1674.69 228.299 1676 229C1677.1 229.589 1678 230.73 1678 231.535C1678 232.577 1679.15 233 1682 233C1684.72 233 1686 232.562 1686 231.628C1686 230.8 1687.59 230.002 1690 229.616C1692.41 229.23 1694 228.432 1694 227.605C1694 226.04 1697.01 225.034 1701.75 225.014C1703.97 225.004 1705 224.523 1705 223.5C1705 222.337 1706.32 222 1710.86 222C1715.34 222 1717.37 221.494 1719.45 219.863C1722.05 217.816 1723.23 217.721 1747.21 217.613C1772.13 217.501 1772.26 217.511 1773.75 219.75C1774.72 221.216 1776.25 222 1778.12 222C1780.01 222 1781 222.514 1781 223.5C1781 224.333 1781.89 225 1783 225C1784.47 225 1785 225.667 1785 227.5C1785 228.922 1785.58 230 1786.34 230C1787.08 230 1788.19 231.125 1788.82 232.5C1789.44 233.875 1790.37 235 1790.88 235C1792.05 235 1793.47 254.959 1792.51 257.97C1791.91 259.858 1791.31 260.112 1788.7 259.59C1786.99 259.249 1785.35 258.63 1785.05 258.215C1783.76 256.445 1778.52 255 1773.38 255C1769.71 255 1767.33 254.477 1766.3 253.439C1764.95 252.088 1761.3 251.919 1739.33 252.189C1722.13 252.399 1713.7 252.858 1713.21 253.61C1712.82 254.221 1709.19 254.952 1705.14 255.235C1701.09 255.518 1697.49 256.152 1697.14 256.645C1696.05 258.173 1691.05 260 1687.95 260C1686 260 1685 260.505 1685 261.5C1685 262.583 1683.89 263 1681 263C1678.33 263 1676.33 263.667 1675 265C1673.9 266.1 1672.54 267 1671.97 267C1671.4 267 1670.68 267.675 1670.36 268.5C1670.05 269.325 1669.21 270 1668.5 270C1667.79 270 1666.15 271.117 1664.85 272.483C1663.56 273.848 1661.71 274.973 1660.75 274.983C1659.79 274.992 1659 275.675 1659 276.5C1659 277.325 1658.44 278 1657.75 278C1656.24 278 1651 283.368 1651 284.91C1651 285.51 1650.28 286 1649.41 286C1648.53 286 1647.58 286.9 1647.29 288C1647 289.1 1646.14 290 1645.38 290C1644.62 290 1644 290.914 1644 292.031C1644 293.149 1643.32 294.322 1642.5 294.638C1641.68 294.955 1641 295.841 1641 296.607C1641 297.373 1640.55 298 1640 298C1639.45 298 1639 298.9 1639 300C1639 301.111 1638.33 302 1637.5 302C1636.35 302 1636 303.278 1636 307.5C1636 311.691 1635.65 313 1634.52 313C1632.92 313 1632.36 314.819 1631.67 322.374C1631.42 325.054 1630.61 327.625 1629.86 328.087C1627.89 329.305 1627.94 358.73 1629.92 359.95C1630.77 360.475 1631.58 363.921 1632.08 369.145C1632.52 373.74 1632.9 377.613 1632.94 377.75C1632.97 377.887 1633.68 378 1634.5 378C1635.58 378 1636 379.103 1636 381.929C1636 384.089 1636.68 386.532 1637.5 387.357C1638.32 388.182 1639 389.677 1639 390.679C1639 391.68 1640.13 393.807 1641.5 395.406C1642.88 397.004 1644 398.916 1644 399.656C1644 400.395 1644.63 401 1645.39 401C1646.16 401 1647.07 402.125 1647.41 403.5C1647.76 404.875 1648.71 406 1649.52 406C1650.33 406 1651 406.627 1651 407.393C1651 408.159 1651.68 409.045 1652.5 409.362C1653.32 409.678 1654 410.596 1654 411.401C1654 412.206 1654.88 413.144 1655.95 413.484C1657.02 413.824 1658.21 415.09 1658.59 416.297C1659.43 418.927 1661.85 420.925 1664.25 420.968C1665.21 420.986 1666 421.675 1666 422.5C1666 423.433 1666.94 424 1668.5 424C1669.99 424 1671 424.572 1671 425.421C1671 426.202 1672.35 427.138 1674.01 427.502C1675.66 427.865 1677.46 428.989 1678 430C1678.54 431.011 1680.3 432.127 1681.91 432.48C1683.52 432.833 1685.08 433.77 1685.39 434.561C1685.74 435.484 1687.38 436 1689.97 436C1692.88 436 1694 436.415 1694 437.5C1694 438.594 1695.15 439.007 1698.25 439.024C1703.72 439.056 1711.25 440.793 1712.14 442.224C1712.6 442.969 1718.72 443.362 1730.66 443.413C1745.76 443.477 1748.98 443.224 1751.66 441.763C1753.4 440.814 1757.34 439.742 1760.41 439.381C1764.14 438.943 1766 438.271 1766 437.362C1766 436.416 1767.36 436 1770.46 436C1773.48 436 1775.5 435.404 1776.71 434.16C1777.7 433.148 1779.29 432.037 1780.25 431.691C1781.21 431.346 1782 430.374 1782 429.531C1782 428.689 1782.47 428 1783.04 428C1783.61 428 1785.38 427.039 1786.97 425.865C1791.35 422.628 1793 423.889 1793 430.469C1793 435.333 1793.24 436 1795 436C1796.11 436 1797 436.667 1797 437.5C1797 438.804 1801.44 439 1831 439C1859.82 439 1865 438.782 1865 437.57C1865 436.783 1866.01 435.995 1867.25 435.82L1869.5 435.5V335.967C1869.5 244.787 1869.36 236.101 1867.81 232.467C1866.88 230.285 1865.84 225.913 1865.49 222.75C1865.14 219.587 1864.46 217 1863.97 217C1863.49 217 1862.8 215.44 1862.44 213.534C1862.04 211.386 1861.07 209.839 1859.9 209.467C1858.52 209.03 1858 207.924 1858 205.433C1858 203.17 1857.53 202 1856.61 202C1855.82 202 1854.94 200.505 1854.57 198.5C1854.08 195.918 1853.4 195 1851.95 195C1850.54 195 1850 194.314 1850 192.5C1850 190.944 1849.43 190 1848.5 190C1847.68 190 1847 189.325 1847 188.5C1847 187.667 1846.11 187 1845 187C1843.9 187 1843 186.341 1843 185.535C1843 184.73 1842.1 183.589 1841 183C1839.9 182.411 1839 181.27 1839 180.465C1839 179.659 1838.1 179 1837 179C1835.67 179 1835 178.333 1835 177C1835 175.667 1834.33 175 1833 175C1831.9 175 1831 174.375 1831 173.611C1831 172.823 1829.53 171.946 1827.6 171.584C1825.73 171.233 1823.95 170.308 1823.65 169.528C1823.35 168.748 1821.54 167.816 1819.62 167.457C1817.71 167.097 1815.9 166.173 1815.6 165.402C1815.3 164.631 1813.85 164 1812.36 164C1810.87 164 1808.87 163.284 1807.9 162.41C1806.93 161.535 1804.21 160.385 1801.85 159.854C1799.48 159.323 1797.31 158.507 1797.03 158.042C1796.74 157.576 1791.92 156.736 1786.33 156.176C1780.74 155.616 1775.3 154.699 1774.26 154.137C1771.75 152.797 1749.42 151.965 1740.48 152.878ZM2571.75 160.299C2568.83 161.452 2567.97 164 2570.5 164C2571.55 164 2572 165.059 2572 167.531C2572 169.719 2572.56 171.278 2573.47 171.628C2574.28 171.939 2575.23 173.731 2575.59 175.611C2575.94 177.49 2576.78 179.359 2577.46 179.764C2578.14 180.169 2578.99 182.7 2579.35 185.39C2579.71 188.079 2580.72 190.807 2581.6 191.451C2582.5 192.107 2583.43 194.684 2583.73 197.311C2584.07 200.357 2584.74 202 2585.63 202C2586.54 202 2587 203.218 2587 205.596C2587 207.573 2587.86 210.401 2588.91 211.879C2589.97 213.358 2591.14 216.24 2591.52 218.284C2591.93 220.453 2592.8 222 2593.61 222C2594.53 222 2595 223.173 2595 225.45C2595 227.548 2595.62 229.246 2596.57 229.781C2597.47 230.281 2598.38 232.565 2598.69 235.08C2598.99 237.511 2599.78 239.95 2600.46 240.5C2601.13 241.05 2601.94 243.509 2602.27 245.965C2602.6 248.453 2603.62 250.983 2604.58 251.68C2605.65 252.464 2606.47 254.808 2606.77 257.965C2607.09 261.332 2607.71 263 2608.63 263C2609.4 263 2610 264.024 2610 265.347C2610 266.638 2610.9 268.732 2612 270C2613.1 271.268 2614 273.565 2614 275.103C2614 276.642 2614.69 278.284 2615.52 278.753C2616.42 279.258 2617.3 281.695 2617.65 284.72C2618.11 288.568 2618.72 289.956 2620.13 290.324C2621.65 290.721 2622 291.771 2622 295.906C2622 299.767 2622.36 301 2623.5 301C2624.41 301 2625 301.929 2625 303.365C2625 304.666 2625.9 306.879 2627.01 308.284C2628.11 309.689 2629.32 312.335 2629.68 314.164C2630.05 315.994 2630.95 318.088 2631.67 318.817C2632.4 319.546 2633 321.88 2633 324.004C2633 326.901 2633.47 328.014 2634.88 328.46C2636.29 328.911 2636.87 330.317 2637.25 334.236C2637.52 337.085 2638.25 339.584 2638.87 339.791C2639.49 339.998 2640 340.864 2640 341.717C2640 344.973 2642.37 351 2643.66 351C2644.52 351 2645 352.222 2645 354.393C2645 356.487 2645.57 358.006 2646.5 358.362C2647.44 358.72 2648 360.246 2648 362.412C2648 364.648 2648.66 366.352 2649.84 367.193C2650.94 367.971 2651.92 370.28 2652.27 372.894C2652.59 375.311 2653.27 377.561 2653.78 377.894C2654.29 378.227 2655.27 380.863 2655.96 383.75C2656.72 386.991 2657.74 389 2658.6 389C2659.65 389 2660 390.523 2660 395C2660 399.254 2660.38 401 2661.3 401C2662.01 401 2663.17 402.575 2663.86 404.5C2664.56 406.425 2665.5 408 2665.95 408C2666.41 408 2667.08 409.641 2667.46 411.646C2667.84 413.652 2668.75 416.239 2669.48 417.396C2670.21 418.553 2671.12 421.413 2671.49 423.75C2671.92 426.421 2672.7 428 2673.59 428C2674.69 428 2675 429.777 2675 436C2675 442.207 2674.68 444 2673.59 444C2672.67 444 2671.96 445.686 2671.51 448.95C2671.13 451.672 2670.23 454.395 2669.5 455C2668.77 455.605 2667.87 458.328 2667.49 461.05C2667.05 464.291 2666.33 466 2665.42 466C2664.56 466 2663.78 467.552 2663.38 470C2663 472.413 2662.2 474 2661.37 474C2660.38 474 2660 475.505 2660 479.5C2660 483.431 2659.62 485 2658.66 485C2657.86 485 2656.79 487.211 2656.01 490.45C2655.29 493.447 2654.1 496.133 2653.35 496.418C2652.48 496.754 2652 498.624 2652 501.728C2652 505.436 2651.55 506.801 2650 507.768C2648.62 508.63 2648 510.1 2648 512.508C2648 514.945 2647.55 516 2646.5 516C2645.42 516 2645 517.111 2645 520C2645 522.834 2644.58 524 2643.54 524C2642.01 524 2640.54 529.371 2641.17 532.65C2641.51 534.403 2643.39 534.513 2677.01 534.753L2712.5 535.005L2713.75 532.303C2714.44 530.817 2715 529.016 2715 528.301C2715 527.585 2715.68 527 2716.5 527C2717.58 527 2718 525.898 2718 523.083C2718 520.929 2718.38 519.017 2718.84 518.833C2720.51 518.174 2725 507.766 2725 504.571C2725 502.733 2725.88 500.29 2727.02 498.982C2728.12 497.704 2729.31 494.935 2729.64 492.829C2730.01 490.548 2730.81 489 2731.63 489C2732.62 489 2733 487.512 2733 483.617C2733 479.074 2733.31 478.152 2735 477.71C2736.17 477.405 2737 476.346 2737 475.165C2737 474.053 2737.71 472.435 2738.57 471.571C2739.44 470.706 2740.4 467.561 2740.7 464.581C2741.13 460.414 2741.69 459.052 2743.13 458.676C2744.65 458.279 2745 457.227 2745 453.094C2745 449.233 2745.36 448 2746.5 448C2747.61 448 2748 446.833 2748 443.5C2748 440.403 2748.42 439 2749.34 439C2750.62 439 2753 432.977 2753 429.741C2753 428.901 2753.68 427.955 2754.5 427.638C2755.34 427.317 2756 425.83 2756 424.272C2756 422.564 2756.78 420.996 2758 420.232C2759.57 419.254 2760 417.9 2760 413.992C2760 410.333 2760.38 409 2761.43 409C2762.41 409 2763.07 407.278 2763.54 403.5C2763.97 400.108 2764.71 398 2765.49 398C2766.82 398 2768 393.704 2768 388.875C2768 386.986 2768.51 386 2769.5 386C2770.58 386 2771 384.889 2771 382C2771 378.667 2771.33 378 2773 378C2774.62 378 2775 377.333 2775 374.469C2775 372.275 2775.56 370.722 2776.48 370.37C2777.36 370.031 2778.22 367.828 2778.61 364.906C2778.96 362.214 2780.1 359.039 2781.13 357.852C2782.26 356.548 2783 354.171 2783 351.847C2783 349.094 2783.43 348 2784.5 348C2785.58 348 2786 346.897 2786 344.077C2786 341.351 2786.76 339.247 2788.5 337.182C2789.88 335.548 2791 333.457 2791 332.534C2791 331.612 2791.68 330.182 2792.5 329.357C2793.32 328.532 2794.01 326.652 2794.01 325.179C2794.03 320.963 2795.11 318 2796.62 318C2797.56 318 2798 316.75 2798 314.071C2798 311.911 2798.64 309.506 2799.42 308.728C2800.19 307.949 2801.15 305.217 2801.53 302.656C2801.94 299.926 2802.75 298 2803.5 298C2804.97 298 2805.97 294.892 2805.99 290.25C2806 288.15 2806.49 287 2807.39 287C2808.18 287 2809.06 285.511 2809.43 283.527C2809.79 281.617 2810.67 279.705 2811.39 279.277C2812.11 278.85 2812.99 276.335 2813.34 273.689C2813.69 271.044 2814.66 268.199 2815.49 267.368C2816.32 266.538 2817.29 264.051 2817.64 261.843C2817.99 259.635 2818.89 257.594 2819.64 257.307C2820.53 256.966 2821 255.093 2821 251.893C2821 248.303 2821.38 247 2822.44 247C2823.38 247 2824.11 245.42 2824.56 242.42C2824.94 239.902 2825.86 237.608 2826.6 237.324C2827.34 237.04 2828.25 235.163 2828.63 233.153C2829 231.144 2829.96 229.023 2830.76 228.439C2831.55 227.856 2832.44 225.268 2832.73 222.689C2833.07 219.643 2833.74 218 2834.63 218C2835.62 218 2836 216.49 2836 212.5C2836 208.472 2836.37 207 2837.39 207C2838.17 207 2839.36 205.037 2840.11 202.5C2840.84 200.025 2841.77 198 2842.17 198C2842.58 198 2843.22 196.334 2843.6 194.298C2843.99 192.262 2845.13 189.702 2846.15 188.61C2847.28 187.397 2848 185.138 2848 182.811C2848 180.264 2848.45 179 2849.36 179C2850.25 179 2850.93 177.235 2851.33 173.885C2851.67 171.001 2852.62 168.271 2853.5 167.627C2854.35 166.999 2855.16 165.17 2855.28 163.563C2855.46 161.212 2855.01 160.5 2853 159.92C2849.94 159.038 2783.96 158.781 2778.82 159.631C2775.46 160.187 2775.08 160.582 2774.47 164.189C2774.1 166.362 2773.17 168.381 2772.4 168.677C2771.63 168.972 2771 170.484 2771 172.036C2771 173.587 2770.31 175.543 2769.48 176.381C2768.64 177.219 2767.44 180.514 2766.81 183.703C2766.18 186.891 2765.07 189.86 2764.33 190.3C2763.48 190.81 2763 193.07 2763 196.55C2763 200.671 2762.64 202 2761.53 202C2760.53 202 2759.86 203.588 2759.4 207.066C2759.03 209.853 2758.17 212.691 2757.48 213.375C2756.8 214.058 2755.92 216.953 2755.53 219.808C2755.09 223.011 2754.32 225 2753.52 225C2752.16 225 2751.04 228.013 2751.01 231.75C2751.01 233.077 2750.38 234 2749.5 234C2748.35 234 2748 235.278 2748 239.5C2748 243.598 2747.64 245 2746.57 245C2745.57 245 2744.79 247.235 2743.94 252.5C2743.12 257.573 2742.29 260 2741.36 260C2740.39 260 2740 261.468 2740 265.14C2740 268.699 2739.51 270.64 2738.4 271.451C2737.5 272.107 2736.57 274.683 2736.27 277.311C2735.93 280.357 2735.26 282 2734.37 282C2733.47 282 2733 283.203 2733 285.5C2733 287.602 2732.24 289.757 2731.11 290.894C2730.06 291.936 2728.88 294.749 2728.48 297.144C2728.08 299.54 2727.28 301.802 2726.7 302.171C2726.12 302.539 2725.44 305.555 2725.2 308.871C2724.9 313.103 2724.21 315.409 2722.88 316.606C2721.53 317.828 2721 319.68 2721 323.155C2721 326.619 2720.61 328 2719.61 328C2718.73 328 2717.97 329.683 2717.53 332.628C2716.53 339.322 2716.1 340 2712.89 340C2710.02 340 2710 339.951 2710 334C2710 329.494 2709.65 328 2708.58 328C2707.55 328 2706.98 325.968 2706.47 320.5C2706 315.533 2705.34 313 2704.51 313C2703.77 313 2703.05 311.152 2702.75 308.438C2702.44 305.736 2701.37 302.957 2700.12 301.623C2698.88 300.303 2698 298.053 2698 296.186C2698 294.021 2697.52 293 2696.5 293C2695.33 293 2695 291.638 2695 286.741C2695 281.732 2694.63 280.25 2693.15 279.325C2691.89 278.541 2691.1 276.458 2690.67 272.841C2690.32 269.91 2689.59 267.363 2689.04 267.181C2688.5 266.999 2687.75 264.598 2687.39 261.846C2686.95 258.57 2686.08 256.442 2684.86 255.681C2683.58 254.883 2683 253.342 2683 250.759C2683 248.084 2682.57 247 2681.5 247C2680.47 247 2680 245.971 2680 243.735C2680 241.94 2679.17 238.902 2678.15 236.985C2677.13 235.068 2675.96 231.701 2675.55 229.502C2675.15 227.304 2674.39 225.242 2673.87 224.921C2673.35 224.601 2672.7 222.575 2672.41 220.419C2671.18 211.093 2670.87 210 2669.46 210C2668.46 210 2668 208.902 2668 206.55C2668 204.652 2667.39 202.74 2666.65 202.3C2665.9 201.86 2665.03 199.48 2664.71 197.01C2664.34 194.205 2663.35 191.894 2662.06 190.85C2660.47 189.558 2660 188.025 2660 184.09C2660 180.232 2659.64 179 2658.5 179C2657.37 179 2657 177.779 2657 174.008C2657 170.1 2656.57 168.746 2655 167.768C2653.69 166.951 2653 165.436 2653 163.39C2653 160.552 2652.65 160.204 2649.25 159.642C2642.6 158.543 2574.74 159.118 2571.75 160.299ZM1476.25 221.617C1481.05 222.05 1483 222.627 1483 223.613C1483 224.5 1484.13 225 1486.13 225C1488.42 225 1490.16 225.948 1492.56 228.5C1494.38 230.425 1496.35 232 1496.93 232C1497.52 232 1498 233.125 1498 234.5C1498 236.333 1498.53 237 1500 237C1501.1 237 1502 237.659 1502 238.465C1502 239.27 1502.9 240.411 1504 241C1505.3 241.695 1506 243.094 1506 244.985C1506 246.715 1506.71 248.296 1507.74 248.874C1509.11 249.643 1509.55 251.543 1509.84 257.924L1510.21 266H1466.11H1422V260.125C1422 252.358 1422.94 248 1424.61 248C1425.43 248 1426.23 246.398 1426.62 244C1427 241.587 1427.8 240 1428.63 240C1429.49 240 1430 238.876 1430 237C1430 235.008 1430.5 234 1431.49 234C1432.31 234 1433.55 233.1 1434.23 232C1434.92 230.9 1435.94 230 1436.5 230C1437.07 230 1438.37 228.875 1439.4 227.5C1440.43 226.125 1442.12 225 1443.14 225C1444.16 225 1445 224.325 1445 223.5C1445 222.349 1446.34 221.984 1450.75 221.93C1453.91 221.891 1457.4 221.454 1458.5 220.958C1459.6 220.462 1462.53 220.27 1465 220.533C1467.47 220.795 1472.54 221.283 1476.25 221.617ZM1759 311.5C1759 312.736 1760.81 313 1769.26 313C1778.28 313 1779.66 313.232 1780.71 314.91C1781.37 315.961 1783.3 317.126 1785 317.499C1786.7 317.873 1789.23 319.23 1790.61 320.516L1793.13 322.853L1792.82 340.095C1792.58 353.231 1792.19 357.44 1791.19 357.773C1790.46 358.013 1789.46 359.288 1788.96 360.605C1788.46 361.922 1787.36 363 1786.53 363C1785.69 363 1785 363.675 1785 364.5C1785 365.325 1784.35 366 1783.56 366C1782.76 366 1781.5 366.868 1780.76 367.929C1780.02 368.991 1778.19 370.164 1776.7 370.538C1775.22 370.911 1774 371.568 1774 371.997C1774 372.426 1772.42 373.075 1770.48 373.438C1768.54 373.802 1766.41 374.977 1765.74 376.05C1764.59 377.879 1763.26 378 1744.26 378C1725.07 378 1724 377.901 1724 376.111C1724 374.755 1723.04 374.043 1720.6 373.584C1718.73 373.233 1716.94 372.283 1716.63 371.473C1716.32 370.663 1715.4 370 1714.6 370C1713.79 370 1712.85 369.1 1712.5 368C1712.15 366.9 1711.22 366 1710.43 366C1709.49 366 1709 364.919 1709 362.86C1709 361.026 1708.27 359.189 1707.25 358.443C1705.74 357.338 1705.5 355.375 1705.5 344.002C1705.5 332.619 1705.74 330.666 1707.25 329.559C1708.27 328.811 1709 326.976 1709 325.14C1709 323.07 1709.49 322 1710.44 322C1711.24 322 1712.5 321.132 1713.24 320.071C1713.98 319.009 1715.82 317.833 1717.32 317.456C1718.82 317.078 1720.51 315.922 1721.06 314.885C1721.89 313.337 1723.23 313 1728.54 313C1733.62 313 1735 312.679 1735 311.5C1735 310.25 1737 310 1747 310C1757 310 1759 310.25 1759 311.5ZM1274 632C1272.73 633.1 1270.41 634 1268.85 634C1267 634 1266 634.52 1266 635.481C1266 636.295 1264.88 637.244 1263.5 637.589C1261.94 637.982 1261 638.925 1261 640.108C1261 641.333 1260.29 642 1259 642C1257.89 642 1257 642.667 1257 643.5C1257 644.325 1256.32 645 1255.5 645C1254.57 645 1254 645.944 1254 647.5C1254 648.898 1253.42 650 1252.69 650C1251.96 650 1250.76 651.556 1250.02 653.458C1249.27 655.36 1248.06 657.146 1247.33 657.427C1245.48 658.138 1245.42 684.246 1247.26 686.179C1247.96 686.905 1249.07 688.737 1249.74 690.25C1250.41 691.763 1251.64 693 1252.48 693C1253.39 693 1254 693.904 1254 695.259C1254 696.502 1254.9 698.081 1256 698.768C1257.1 699.455 1258 700.688 1258 701.508C1258 702.329 1258.68 703 1259.5 703C1260.32 703 1261 703.686 1261 704.525C1261 705.363 1262.12 706.477 1263.5 707C1264.88 707.523 1266 708.38 1266 708.904C1266 709.429 1268.44 710.364 1271.41 710.982C1274.39 711.6 1277.08 712.757 1277.38 713.553C1278.16 715.584 1298.51 715.665 1299.7 713.642C1300.14 712.895 1302.86 711.725 1305.75 711.042C1308.64 710.359 1311 709.384 1311 708.876C1311 708.367 1312.12 707.523 1313.5 707C1314.88 706.477 1316 705.363 1316 704.525C1316 703.686 1316.68 703 1317.5 703C1318.32 703 1319 702.48 1319 701.844C1319 701.208 1320.8 698.924 1323 696.767C1325.49 694.329 1327 691.93 1327 690.423C1327 689.027 1327.59 688 1328.38 688C1330.48 688 1330.97 684.71 1330.99 670.656C1331 658.648 1330.87 657.779 1329 657.29C1327.5 656.897 1327 655.926 1327 653.383C1327 651.043 1326.54 650 1325.5 650C1324.68 650 1324 649.588 1324 649.085C1324 647.706 1319.49 642.629 1311.92 635.493C1311.05 634.672 1308.96 634 1307.28 634C1305.07 634 1304.09 633.448 1303.71 632C1303.22 630.125 1302.35 630 1289.75 630C1277.74 630 1276.06 630.214 1274 632ZM2714.26 631.95C2713.59 633.023 2711.49 634.192 2709.59 634.549C2707.69 634.905 2705.9 635.827 2705.6 636.598C2705.3 637.387 2703.7 638 2701.94 638C2699.65 638 2698.67 638.538 2698.29 640C2697.88 641.567 2696.93 642 2693.88 642C2691.1 642 2690 642.424 2690 643.5C2690 644.325 2689.51 645 2688.9 645C2688.3 645 2686.54 645.904 2684.99 647.008C2683.44 648.113 2680.81 649.288 2679.15 649.62C2677.49 649.953 2675.89 650.849 2675.59 651.612C2675.3 652.375 2674.19 653 2673.11 653C2670.1 653 2668 654.072 2668 655.607C2668 656.566 2666.75 657 2664 657C2661.39 657 2660 657.45 2660 658.299C2660 659.014 2658.46 660.156 2656.57 660.838C2654.02 661.759 2652.97 662.84 2652.49 665.039C2652.13 666.668 2651.43 668 2650.92 668C2650.36 668 2650 735.311 2650 838.5C2650 936.493 2650.38 1009 2650.88 1009C2651.37 1009 2652 1009.9 2652.29 1011C2652.8 1012.95 2653.65 1013 2688.91 1013H2725V821.5V630H2720.24C2716.6 630 2715.19 630.46 2714.26 631.95ZM2813 632C2812.3 633.317 2810.91 634 2808.93 634C2807.19 634 2805.7 634.628 2805.36 635.5C2805.05 636.325 2804.15 637 2803.36 637C2802.58 637 2801.68 637.675 2801.36 638.5C2801.05 639.325 2800.35 640 2799.82 640C2798.57 640 2796 642.574 2796 643.822C2796 644.352 2795.32 645.045 2794.5 645.362C2793.68 645.678 2793 646.851 2793 647.969C2793 649.086 2792.38 650 2791.61 650C2790.82 650 2789.94 651.495 2789.57 653.5C2789.17 655.595 2788.33 657 2787.46 657C2786.25 657 2786 659.541 2786 672C2786 684.483 2786.24 687 2787.46 687C2788.3 687 2789.43 688.707 2790.12 691C2790.78 693.2 2791.62 695 2792 695C2792.37 695 2793.19 696.125 2793.82 697.5C2794.45 698.875 2795.64 700 2796.48 700C2797.32 700 2798 700.675 2798 701.5C2798 702.325 2798.68 703 2799.5 703C2800.32 703 2801 703.851 2801 704.892C2801 706.075 2801.94 707.018 2803.5 707.411C2804.88 707.756 2806 708.435 2806 708.919C2806 709.404 2808.22 710.332 2810.92 710.982C2813.63 711.632 2816.09 712.801 2816.39 713.582C2817.19 715.655 2839 715.661 2839 713.588C2839 712.724 2840.53 711.918 2842.94 711.511C2845.1 711.145 2847.87 709.981 2849.09 708.923C2850.31 707.865 2851.91 707 2852.65 707C2853.38 707 2854.54 706.1 2855.23 705C2855.92 703.9 2857.05 703 2857.74 703C2858.43 703 2859 702.1 2859 701C2859 699.9 2859.65 699 2860.43 699C2861.22 699 2862.15 698.1 2862.5 697C2862.85 695.9 2863.76 695 2864.52 695C2865.34 695 2866.17 693.474 2866.55 691.25C2866.9 689.188 2868.05 686.281 2869.09 684.79C2871.86 680.856 2871.88 663.059 2869.12 659.154C2868.09 657.694 2866.93 655.038 2866.54 653.25C2866.16 651.462 2865.42 650 2864.9 650C2864.38 650 2863.52 648.875 2863 647.5C2862.48 646.125 2861.36 645 2860.52 645C2859.69 645 2859 644.325 2859 643.5C2859 642.675 2858.32 642 2857.5 642C2856.67 642 2856 641.111 2856 640C2856 638.637 2855.33 638 2853.91 638C2852.65 638 2851.6 637.197 2851.29 636C2850.89 634.484 2849.93 634 2847.29 634C2844.65 634 2843.69 633.516 2843.29 632C2842.8 630.117 2841.93 630 2828.42 630C2815.09 630 2813.99 630.143 2813 632ZM3023 631.488C3023 632.451 3021.59 633.202 3019 633.616C3016.61 633.999 3015 634.802 3015 635.616C3015 636.43 3013.39 637.233 3011 637.616C3008.8 637.968 3007 638.82 3007 639.511C3007 640.912 3003.91 641.966 2999.75 641.986C2997.98 641.995 2997 642.534 2997 643.5C2997 644.356 2996.1 645 2994.91 645C2993.69 645 2992.6 645.797 2992.31 646.906C2991.99 648.14 2990.56 649.047 2988.26 649.478C2986.31 649.845 2984.07 650.787 2983.28 651.572C2982.5 652.358 2980.76 653 2979.43 653C2977.94 653 2977 653.579 2977 654.488C2977 655.455 2975.58 656.204 2972.93 656.627C2970.7 656.984 2968.25 657.89 2967.5 658.639C2966.76 659.387 2965.21 660 2964.07 660C2962.64 660 2962 660.643 2962 662.094C2962 663.342 2961.2 664.397 2960.01 664.707C2958.09 665.211 2958.02 666.255 2957.76 699.263L2957.5 733.299L2936.18 733.082C2920.9 732.927 2914.46 733.202 2913.43 734.055C2912.24 735.047 2912 741.127 2912 770.622V806H2934.39C2953.89 806 2956.87 806.205 2957.39 807.582C2957.73 808.452 2958 841.189 2958.01 880.332C2958.02 919.474 2958.3 953.188 2958.64 955.25C2959.01 957.456 2959.83 959 2960.63 959C2961.65 959 2962 960.665 2962 965.5C2962 970.611 2962.32 972 2963.5 972C2964.32 972 2965 972.863 2965 973.918C2965 976.849 2966.07 979 2967.53 979C2968.25 979 2969.14 980.35 2969.5 982C2969.86 983.65 2970.52 985 2970.96 985C2971.4 985 2972.32 986.35 2973 988C2973.68 989.65 2974.86 991 2975.62 991C2976.49 991 2977 992.117 2977 994C2977 996.298 2977.45 997 2978.93 997C2980 997 2981.15 997.914 2981.51 999.041C2981.89 1000.24 2983.34 1001.32 2985.02 1001.65C2986.59 1001.97 2988.11 1002.85 2988.41 1003.61C2988.7 1004.38 2989.57 1005 2990.35 1005C2991.13 1005 2992 1005.9 2992.29 1007C2992.6 1008.2 2993.65 1009 2994.91 1009C2996.06 1009 2997 1009.62 2997 1010.38C2997 1011.9 2999.97 1012.97 3004.24 1012.99C3005.89 1013 3007.48 1013.8 3008.23 1015C3009.43 1016.91 3010.56 1017 3034.17 1017C3053.53 1017 3059.15 1016.71 3060.2 1015.65C3060.94 1014.91 3064.01 1013.72 3067.02 1013.01C3070.04 1012.3 3072.86 1011.11 3073.3 1010.36C3073.74 1009.61 3075.38 1009 3076.93 1009C3078.93 1009 3079.92 1008.41 3080.29 1007C3080.6 1005.8 3081.65 1005 3082.91 1005C3084.1 1005 3085 1004.36 3085 1003.5C3085 1002.68 3085.57 1002 3086.26 1002C3089.07 1002 3091.74 992.834 3092.37 981.067C3092.7 974.779 3093.42 969.357 3093.97 969.019C3094.52 968.681 3095.47 963.7 3096.1 957.952C3096.72 952.203 3097.74 947.179 3098.36 946.787C3100 945.757 3100.57 928.973 3099 928.002C3097.39 927.005 3092 929.096 3092 930.719C3092 931.424 3091.1 932 3090 932C3088.67 932 3088 932.667 3088 934C3088 935.344 3087.33 936 3085.97 936C3084.85 936 3083.69 936.648 3083.39 937.439C3083.08 938.23 3081.54 939.162 3079.96 939.508C3078.38 939.856 3076.82 941.004 3076.48 942.069C3075.97 943.665 3074.92 944 3070.43 944C3066.27 944 3065 944.351 3065 945.5C3065 946.7 3063.5 947 3057.5 947C3051.5 947 3050 946.7 3050 945.5C3050 944.417 3048.89 944 3046 944C3043.11 944 3042 943.583 3042 942.5C3042 941.675 3041.35 941 3040.57 941C3039.78 941 3038.85 940.1 3038.5 939C3038.15 937.9 3037.22 937 3036.43 937C3035.36 937 3035 935.594 3035 931.401C3035 928.322 3034.32 924.372 3033.49 922.623C3032.19 919.886 3032.02 911.61 3032.24 862.972L3032.5 806.5L3065.25 806.236C3093.44 806.009 3098 805.766 3098 804.486C3098 803.669 3098.45 803 3099 803C3099.65 803 3100 791.372 3100 770.115V737.23L3097.25 735.383C3094.76 733.707 3091.61 733.502 3063.25 733.163L3032 732.791V681.395V630H3027.5C3024.18 630 3023 630.391 3023 631.488ZM3180 631.389C3180 632.188 3178.49 633.06 3176.45 633.444C3174.49 633.81 3172.66 634.716 3172.38 635.457C3172.09 636.197 3170.99 637.03 3169.93 637.308C3168.87 637.586 3168 638.481 3168 639.298C3168 640.115 3166.88 641.066 3165.5 641.411C3164.12 641.756 3163 642.656 3163 643.412C3163 644.168 3162.32 645.045 3161.5 645.362C3160.68 645.678 3160 646.596 3160 647.401C3160 648.206 3159.1 649.151 3158 649.5C3156.51 649.972 3156 651.013 3156 653.567C3156 655.952 3155.54 657 3154.5 657C3153.23 657 3153 659.389 3153 672.5C3153 685.059 3153.26 688 3154.39 688C3155.18 688 3156.06 689.495 3156.43 691.5C3156.82 693.57 3157.68 695 3158.53 695C3159.32 695 3160.24 696.125 3160.59 697.5C3160.93 698.875 3161.84 700 3162.61 700C3163.37 700 3164 700.675 3164 701.5C3164 702.333 3164.89 703 3166 703C3167.29 703 3168 703.667 3168 704.892C3168 706.075 3168.94 707.018 3170.5 707.411C3171.88 707.756 3173 708.435 3173 708.919C3173 709.404 3175.22 710.332 3177.92 710.982C3180.63 711.632 3183.09 712.801 3183.39 713.582C3184.19 715.655 3206 715.661 3206 713.588C3206 712.724 3207.53 711.918 3209.94 711.511C3212.1 711.145 3214.87 709.981 3216.09 708.923C3217.31 707.865 3219.11 707 3220.09 707C3221.06 707 3222.15 706.1 3222.5 705C3222.85 703.9 3223.78 703 3224.57 703C3225.35 703 3226 702.1 3226 701C3226 699.9 3226.59 699 3227.31 699C3228.04 699 3229.24 697.444 3229.98 695.542C3230.73 693.64 3231.94 691.854 3232.67 691.573C3233.4 691.292 3234 689.636 3234 687.892C3234 686.025 3234.72 684.194 3235.75 683.442C3237.15 682.415 3237.57 680.294 3237.84 672.675C3238.15 664.121 3237.98 662.98 3236.09 661.093C3234.89 659.89 3234 657.712 3234 655.969C3234 654.241 3233.38 652.698 3232.55 652.38C3231.75 652.074 3230.59 650.288 3229.97 648.412C3229.35 646.535 3228.21 645 3227.42 645C3226.64 645 3226 644.311 3226 643.469C3226 642.626 3225.32 641.678 3224.5 641.362C3223.68 641.045 3223 640.189 3223 639.46C3223 638.731 3222.01 637.82 3220.8 637.435C3219.59 637.051 3217.98 636.121 3217.23 635.368C3216.47 634.616 3214.78 634 3213.46 634C3212.09 634 3210.61 633.145 3210 632C3209 630.142 3207.91 630 3194.47 630C3182.79 630 3180 630.268 3180 631.389ZM1875.71 637.86C1868.73 638.317 1865.66 638.92 1865.02 639.964C1864.41 640.955 1861.84 641.557 1857.06 641.827C1851.9 642.118 1850 642.599 1850 643.613C1850 644.556 1848.76 645 1846.14 645C1843.78 645 1841.27 645.784 1839.72 647.009C1838.31 648.114 1835.8 649.289 1834.15 649.621C1832.49 649.953 1830.89 650.849 1830.59 651.612C1830.28 652.421 1828.64 653 1826.65 653C1824.07 653 1823.1 653.493 1822.71 655C1822.31 656.532 1821.35 657 1818.59 657C1816.07 657 1815 657.445 1815 658.5C1815 659.325 1814.32 660 1813.5 660C1812.68 660 1812 660.659 1812 661.465C1812 663.198 1808.98 665 1806.07 665C1804.9 665 1804 665.651 1804 666.5C1804 667.333 1803.11 668 1802 668C1800.67 668 1800 668.667 1800 670C1800 671.1 1799.4 672 1798.66 672C1797.92 672 1796 673.124 1794.41 674.499C1792.81 675.873 1790.94 676.998 1790.25 676.999C1789.56 676.999 1789 677.675 1789 678.5C1789 679.333 1788.11 680 1787 680C1785.53 680 1785 680.667 1785 682.5C1785 683.875 1784.42 685 1783.72 685C1783.01 685 1781.63 686.35 1780.66 688C1779.68 689.65 1778.46 691 1777.94 691C1777.42 691 1777 691.9 1777 693C1777 694.1 1776.49 695 1775.86 695C1774.29 695 1770 699.79 1770 701.552C1770 702.348 1769.41 703 1768.69 703C1767.96 703 1766.75 704.575 1766 706.5C1765.25 708.425 1764.04 710 1763.31 710C1762.45 710 1762 711.364 1762 714C1762 716.732 1761.56 718 1760.62 718C1759.86 718 1758.64 719.462 1757.91 721.25C1757.18 723.038 1756 725.095 1755.29 725.821C1754.58 726.548 1754 728.408 1754 729.955C1754 731.926 1753.4 732.923 1752 733.29C1750.47 733.69 1750 734.654 1750 737.406C1750 739.934 1749.55 741 1748.5 741C1747.42 741 1747 742.106 1747 744.95C1747 747.45 1746.44 749.214 1745.48 749.754C1744.59 750.247 1743.46 753.324 1742.78 757.053C1742.14 760.599 1741.18 763.792 1740.66 764.148C1740.14 764.504 1739.5 768.194 1739.23 772.347C1738.89 777.625 1738.22 780.461 1737 781.767C1735.69 783.177 1735.15 785.932 1734.81 793.007C1734.53 798.975 1733.94 802.521 1733.18 802.772C1731.7 803.268 1731.47 852.648 1732.95 853.167C1733.48 853.35 1734.17 856.65 1734.5 860.5C1735.59 873.475 1736.08 876 1737.46 876C1738.44 876 1738.89 878.28 1739.15 884.668C1739.39 890.431 1739.92 893.475 1740.75 893.751C1741.44 893.98 1742 895.232 1742 896.534C1742 901.461 1744.17 909 1745.58 909C1746.63 909 1747 910.421 1747 914.5C1747 918.722 1747.35 920 1748.5 920C1749.33 920 1750 920.888 1750 921.992C1750 923.087 1750.9 924.545 1752 925.232C1753.19 925.978 1754 927.564 1754 929.169C1754 930.648 1754.65 932.51 1755.45 933.308C1756.25 934.106 1757.21 935.997 1757.59 937.51C1757.97 939.023 1759.12 940.48 1760.14 940.747C1761.48 941.096 1762 942.157 1762 944.51C1762 946.363 1762.6 948.015 1763.37 948.312C1764.13 948.602 1765.06 950.09 1765.44 951.619C1766.12 954.317 1770.24 959 1771.94 959C1772.4 959 1773.07 960.125 1773.41 961.5C1773.76 962.875 1774.71 964 1775.52 964C1776.33 964 1777 964.675 1777 965.5C1777 966.325 1777.68 967 1778.5 967C1779.32 967 1780.01 967.787 1780.03 968.75C1780.07 970.838 1782.31 974 1783.74 974C1784.31 974 1785 974.903 1785.29 976.007C1785.62 977.262 1786.97 978.245 1788.91 978.632C1790.61 978.972 1792 979.869 1792 980.625C1792 981.381 1792.89 982 1793.98 982C1795.26 982 1796.18 982.886 1796.59 984.5C1796.93 985.875 1797.84 987 1798.61 987C1799.37 987 1800 987.675 1800 988.5C1800 989.325 1800.85 990 1801.88 990C1802.93 990 1804 990.893 1804.29 992C1804.69 993.532 1805.65 994 1808.41 994C1810.93 994 1812 994.445 1812 995.5C1812 996.325 1812.52 997 1813.16 997C1813.79 997 1815.79 998.125 1817.59 999.5C1819.44 1000.91 1822.2 1002 1823.93 1002C1825.87 1002 1827 1002.51 1827 1003.37C1827 1004.2 1828.59 1005 1831 1005.38C1833.39 1005.77 1835 1006.57 1835 1007.38C1835 1008.19 1836.59 1009 1838.92 1009.37C1841.07 1009.72 1842.98 1010.42 1843.17 1010.95C1843.35 1011.47 1846.64 1012.39 1850.47 1013C1854.31 1013.61 1857.78 1014.65 1858.19 1015.31C1858.73 1016.19 1868.14 1016.58 1893.94 1016.79C1923.16 1017.03 1929.33 1016.83 1931.23 1015.63C1932.48 1014.83 1936.54 1013.72 1940.26 1013.15C1943.97 1012.59 1947.72 1011.43 1948.58 1010.57C1949.44 1009.7 1951.66 1009 1953.5 1009C1955.99 1009 1957.03 1008.48 1957.5 1007C1957.97 1005.51 1959.01 1005 1961.57 1005C1963.95 1005 1965 1004.54 1965 1003.5C1965 1002.45 1966.07 1002 1968.59 1002C1971.33 1002 1972.31 1001.53 1972.7 1000.03C1973.04 998.75 1974.4 997.828 1976.54 997.426C1978.37 997.084 1980.1 996.173 1980.4 995.402C1980.69 994.631 1981.65 994 1982.51 994C1983.38 994 1985.05 993.1 1986.23 992C1987.41 990.9 1988.97 990 1989.69 990C1990.41 990 1991 989.506 1991 988.901C1991 987.621 1996.79 982 1998.11 982C1998.6 982 1999 981.325 1999 980.5C1999 979.667 1999.89 979 2001 979C2002.33 979 2003 978.333 2003 977C2003 975.9 2003.66 975 2004.47 975C2005.27 975 2006.41 974.1 2007 973C2007.59 971.9 2008.73 971 2009.53 971C2010.43 971 2011 970.029 2011 968.5C2011 967.007 2011.57 966 2012.42 966C2013.2 966 2014.14 964.65 2014.5 963C2014.86 961.347 2015.81 960 2016.61 960C2017.41 960 2018.36 959.213 2018.72 958.25C2019.08 957.287 2020.19 955.912 2021.18 955.193C2022.18 954.475 2023 953.237 2023 952.443C2023 951.649 2023.68 951 2024.5 951C2025.55 951 2026 949.944 2026 947.5C2026 945.241 2026.48 944 2027.34 944C2029.18 944 2031.91 932.803 2030.2 932.234C2029.54 932.014 2029 931.196 2029 930.417C2029 929.529 2027.95 929 2026.18 929C2024.42 929 2022.55 928.062 2021.19 926.5C2019.95 925.076 2017.93 924 2016.51 924C2015.03 924 2014 923.427 2014 922.611C2014 921.823 2012.53 920.946 2010.6 920.584C2008.72 920.233 2006.94 919.283 2006.63 918.473C2006.32 917.663 2005.14 917 2004.02 917C2002.9 917 2001.21 916.1 2000.27 915C1999.33 913.9 1998.01 913 1997.34 913C1996.68 913 1995.85 912.1 1995.5 911C1995.03 909.512 1993.99 909 1991.43 909C1989.17 909 1988 908.527 1988 907.611C1988 906.816 1986.51 905.942 1984.5 905.566C1982.43 905.178 1981 904.323 1981 903.474C1981 902.684 1979.88 901.756 1978.5 901.411C1977.12 901.066 1976 900.434 1976 900.008C1976 899.582 1975.21 899.007 1974.25 898.73C1973.29 898.453 1971.82 897.948 1971 897.608C1969.36 896.933 1964 900.985 1964 902.898C1964 903.539 1963.32 904.322 1962.5 904.638C1961.68 904.955 1961 906.013 1961 906.99C1961 907.967 1960.15 908.99 1959.11 909.262C1958 909.551 1956.94 911.021 1956.55 912.795C1956.18 914.466 1955.23 916.081 1954.44 916.385C1953.65 916.689 1953 917.554 1953 918.308C1953 919.062 1951.88 920.192 1950.5 920.818C1949.12 921.445 1948 922.417 1948 922.979C1948 923.54 1947.32 924 1946.5 924C1945.68 924 1945 924.646 1945 925.435C1945 926.225 1943.42 927.44 1941.5 928.136C1939.58 928.832 1938 929.986 1938 930.701C1938 931.415 1937.34 932 1936.54 932C1935.73 932 1934.59 932.9 1934 934C1933.31 935.298 1931.91 936 1930.02 936C1928.41 936 1926.74 936.594 1926.3 937.32C1925.86 938.046 1921.72 939.373 1917.09 940.27C1912.46 941.166 1908.36 942.415 1907.97 943.045C1906.98 944.651 1886.2 943.951 1885.17 942.276C1884.75 941.602 1881.14 940.586 1877.13 940.018C1873.12 939.45 1869.17 938.313 1868.35 937.492C1867.53 936.672 1865.87 936 1864.67 936C1863.47 936 1861.92 935.1 1861.23 934C1860.53 932.869 1858.9 932 1857.49 932C1855.94 932 1855 931.432 1855 930.5C1855 929.567 1854.06 929 1852.5 929C1850.5 929 1850 928.5 1850 926.5C1850 924.5 1849.5 924 1847.5 924C1846.12 924 1845 923.626 1845 923.169C1845 922.712 1843.98 921.789 1842.72 921.119C1841.47 920.448 1839.86 918.572 1839.14 916.95C1838.42 915.327 1837.2 914 1836.42 914C1835.57 914 1835 912.99 1835 911.5C1835 909.944 1834.43 909 1833.5 909C1832.65 909 1832 908.106 1832 906.952C1832 905.826 1830.88 903.862 1829.5 902.588C1828.12 901.313 1827 899.535 1827 898.635C1827 897.736 1826.32 897 1825.5 897C1824.57 897 1824 896.061 1824 894.547C1824 891.667 1822.05 887 1820.84 887C1820.38 887 1820 885.007 1820 882.571C1820 880.099 1819.38 877.522 1818.59 876.736C1817.82 875.963 1816.65 871.768 1815.99 867.415C1815.33 863.062 1814.28 859.179 1813.65 858.787C1812.84 858.284 1812.41 849.278 1812.21 828.15C1811.96 802.897 1812.15 797.997 1813.39 796.758C1814.19 795.95 1815.34 791.812 1815.93 787.562C1816.52 783.311 1817.68 778.871 1818.5 777.694C1819.37 776.45 1820 773.348 1820 770.277C1820 766.381 1820.37 765 1821.42 765C1822.2 765 1823.37 763.425 1824 761.5C1824.63 759.575 1825.57 758 1826.08 758C1826.59 758 1827 756.875 1827 755.5C1827 754.125 1827.56 752.996 1828.25 752.992C1829.54 752.984 1832 748.596 1832 746.301C1832 745.585 1832.68 745 1833.5 745C1834.33 745 1835 744.111 1835 743C1835 741.889 1835.67 741 1836.5 741C1837.32 741 1838 740.372 1838 739.605C1838 738.838 1839.12 737.15 1840.48 735.855C1841.85 734.56 1842.97 732.986 1842.98 732.357C1843 731.05 1845.27 730 1848.08 730C1849.33 730 1850 729.305 1850 728C1850 726.656 1850.67 726 1852.03 726C1853.15 726 1854.3 725.369 1854.6 724.598C1854.9 723.827 1856.6 722.922 1858.39 722.586C1860.19 722.25 1862.61 721.081 1863.78 719.988C1864.96 718.894 1866.84 718 1867.96 718C1869.08 718 1870 717.371 1870 716.603C1870 715.541 1872.08 715.12 1878.67 714.849C1884.43 714.613 1887.47 714.076 1887.75 713.247C1888.35 711.45 1901.18 711.631 1905.65 713.5C1907.67 714.34 1912.27 715 1916.12 715C1921.57 715 1923 715.312 1923 716.5C1923 717.433 1923.94 718 1925.5 718C1926.88 718 1928.85 718.854 1929.9 719.898C1930.94 720.942 1933.19 722.103 1934.9 722.478C1936.6 722.852 1938 723.708 1938 724.379C1938 725.049 1939.58 726.168 1941.5 726.864C1943.42 727.56 1945 728.55 1945 729.065C1945 729.579 1945.68 730 1946.5 730C1947.32 730 1948 730.482 1948 731.071C1948 732.456 1950.54 735 1951.93 735C1952.52 735 1953 736.109 1953 737.465C1953 738.906 1953.83 740.374 1955 741C1956.1 741.589 1957 742.73 1957 743.535C1957 744.341 1957.64 745 1958.42 745C1959.2 745 1960.14 746.345 1960.5 747.989C1961.26 751.482 1962.72 752.681 1964.29 751.113C1964.9 750.501 1966.41 750 1967.65 750C1970.48 750 1975.25 747.947 1976.3 746.271C1976.74 745.572 1978.65 745 1980.55 745C1982.81 745 1984 744.526 1984 743.628C1984 742.798 1985.6 742 1988.04 741.61C1990.26 741.255 1992.33 740.297 1992.65 739.482C1992.97 738.645 1994.47 738 1996.11 738C1997.98 738 1999 737.484 1999 736.54C1999 735.684 2000.76 734.568 2003.25 733.84C2005.59 733.158 2007.86 732.015 2008.3 731.3C2008.74 730.585 2010.43 730 2012.05 730C2013.67 730 2015.9 729.1 2017 728C2018.24 726.762 2020.33 726 2022.5 726C2024.86 726 2026 725.536 2026 724.579C2026 723.798 2027.38 722.856 2029.07 722.485C2032.23 721.791 2034.07 719.296 2032.27 718.149C2031.71 717.792 2030.92 715.983 2030.52 714.129C2030.07 712.056 2029.06 710.566 2027.89 710.262C2026.51 709.899 2026 708.863 2026 706.383C2026 704.043 2025.54 703 2024.5 703C2023.68 703 2023 702.147 2023 701.105C2023 700.063 2021.88 698.15 2020.52 696.855C2019.15 695.56 2018.03 693.938 2018.02 693.25C2018.01 692.563 2017.54 692 2016.98 692C2016.42 692 2015.45 690.875 2014.82 689.5C2014.19 688.125 2013.08 687 2012.34 687C2011.6 687 2011 686.1 2011 685C2011 683.889 2010.33 683 2009.5 683C2008.68 683 2008 682.325 2008 681.5C2008 680.675 2007.15 680 2006.11 680C2004.92 680 2003.98 679.064 2003.59 677.5C2003.24 676.125 2002.34 675 2001.59 675C2000.83 675 1999.95 674.325 1999.64 673.5C1999.32 672.675 1998.43 672 1997.65 672C1996.87 672 1996 671.1 1995.71 670C1995.4 668.803 1994.35 668 1993.09 668C1991.9 668 1991 667.356 1991 666.5C1991 665.675 1990.44 664.992 1989.75 664.983C1989.06 664.973 1987.44 663.848 1986.15 662.483C1984.85 661.117 1983.21 660 1982.5 660C1981.79 660 1980.95 659.325 1980.64 658.5C1980.32 657.675 1979.15 657 1978.03 657C1976.9 657 1976 656.341 1976 655.512C1976 654.545 1974.58 653.796 1971.93 653.373C1969.7 653.016 1967.33 652.189 1966.68 651.536C1966.02 650.883 1963.96 650.042 1962.08 649.667C1960.21 649.292 1958.05 648.089 1957.28 646.993C1956.36 645.68 1954.75 645 1952.55 645C1950.51 645 1948.99 644.419 1948.64 643.5C1948.21 642.388 1946.44 641.999 1941.78 641.996C1937.36 641.994 1934.57 641.426 1932.36 640.076C1929.59 638.387 1926.63 638.104 1907.36 637.69C1895.34 637.432 1881.09 637.509 1875.71 637.86ZM996.25 644.408C995.013 645.714 994 647.675 994 648.766C994 652.912 992.697 657 991.375 657C990.375 657 990 658.5 990 662.5C990 666.722 989.652 668 988.5 668C987.56 668 987 668.949 987 670.545C987 671.945 985.875 674.216 984.5 675.591C982.935 677.156 982 679.223 982 681.117C982 682.781 981.366 684.777 980.591 685.552C979.816 686.326 978.877 688.769 978.503 690.98C978.085 693.455 977.281 695 976.412 695C975.368 695 975 696.425 975 700.465C975 704.906 974.625 706.13 973 707C971.855 707.613 971 709.094 971 710.464C971 711.78 970.267 713.59 969.371 714.487C968.474 715.383 967.516 718.115 967.241 720.558C966.929 723.326 966.241 725 965.415 725C964.671 725 963.796 726.642 963.419 728.75C963.049 730.813 962.184 733.175 961.496 734C960.808 734.825 959.943 737.598 959.574 740.161C959.204 742.735 958.272 745.065 957.493 745.364C956.678 745.677 955.798 748.041 955.412 750.953C954.976 754.236 954.263 756 953.371 756C952.413 756 952 757.355 952 760.5C952 763.644 951.587 765 950.63 765C949.845 765 948.703 767.029 947.956 769.75C947.239 772.362 946.056 774.86 945.326 775.3C944.597 775.74 944 777.671 944 779.592C944 781.701 943.208 783.933 942 785.23C940.725 786.599 940 788.759 940 791.189C940 793.91 939.571 795 938.5 795C937.348 795 937 796.278 937 800.5C937 804.552 936.631 806 935.598 806C934.058 806 932 810.946 932 814.649C932 816.072 931.408 817 930.5 817C929.518 817 929 817.983 929 819.845C929 821.41 928.156 823.453 927.125 824.387C926.031 825.377 925.036 827.989 924.734 830.665C924.45 833.185 923.774 835.529 923.231 835.874C922.689 836.218 921.934 838.361 921.554 840.635C921.174 842.909 919.994 845.703 918.932 846.843C917.777 848.083 917 850.34 917 852.458C917 854.94 916.551 856 915.5 856C914.456 856 914 857.05 914 859.45C914 861.544 913.383 863.246 912.432 863.778C911.57 864.26 910.433 866.577 909.905 868.926C909.377 871.275 908.283 873.86 907.473 874.67C906.663 875.48 905.994 877.348 905.986 878.821C905.965 883.037 904.89 886 903.383 886C902.39 886 902 887.41 902 891C902 894.778 901.633 896 900.5 896C899.417 896 899 897.11 899 899.992C899 902.919 898.46 904.319 896.975 905.242C895.783 905.982 894.702 908.043 894.347 910.25C894.016 912.313 893.185 914 892.502 914C891.766 914 891.047 915.894 890.736 918.651C890.42 921.449 889.572 923.66 888.606 924.201C887.467 924.838 887 926.547 887 930.081C887 933.506 886.548 935.236 885.553 935.618C884.757 935.923 883.6 938.609 882.982 941.587C882.255 945.088 881.354 947 880.429 947C879.402 947 879 948.266 879 951.5C879 954.771 878.603 956 877.545 956C876.668 956 875.824 957.422 875.419 959.58C875.05 961.549 874.184 963.376 873.495 963.64C872.805 963.905 871.939 966.399 871.57 969.183C871.201 971.966 870.309 974.834 869.588 975.555C868.867 976.276 867.992 978.647 867.644 980.824C867.296 983.001 866.334 985.042 865.506 985.359C864.471 985.756 864 987.356 864 990.469C864 993.804 863.609 995 862.519 995C861.705 995 860.751 996.237 860.399 997.75C860.048 999.263 859.103 1001.03 858.299 1001.67C857.434 1002.36 856.769 1004.81 856.669 1007.67L856.5 1012.5L896.75 1012.76C936.496 1013.02 937 1013 937 1011.01C937 1009.91 937.616 1009 938.37 1009C939.245 1009 940.161 1006.86 940.906 1003.07C941.548 999.81 942.574 996.975 943.187 996.771C943.801 996.566 944.515 993.834 944.775 990.7C945.035 987.565 945.642 985 946.124 985C946.606 985 947 984.325 947 983.5C947 982.675 947.45 982 948 982C948.55 982 949 980.2 949 978C949 975.111 949.417 974 950.5 974C951.583 974 952 972.889 952 970C952 967.238 952.433 966 953.4 966C954.265 966 955.277 963.991 956.045 960.75C956.73 957.862 957.724 955.218 958.254 954.874C958.784 954.529 959.456 952.054 959.748 949.374C960.039 946.693 961.115 943.306 962.139 941.846C963.162 940.386 964 937.573 964 935.596C964 933.066 964.445 932 965.5 932C966.325 932 967 931.325 967 930.5C967 929.182 974.821 929 1031.39 929C1087.71 929 1095.86 929.188 1096.36 930.5C1096.68 931.325 1097.57 932 1098.35 932C1100.01 932 1100.97 934.998 1100.99 940.25C1101 942.77 1101.45 944 1102.38 944C1104.01 944 1104.97 947.028 1104.99 952.25C1105 954.911 1105.44 956 1106.5 956C1107.52 956 1108.01 957.035 1108.02 959.25C1108.03 961.396 1108.88 963.3 1110.52 964.855C1112.23 966.48 1113 968.284 1113 970.676C1113 972.583 1113.68 974.818 1114.5 975.643C1115.32 976.468 1116 978.842 1116 980.918C1116 983.259 1116.76 985.571 1118 987C1119.26 988.453 1120 990.741 1120 993.184C1120 995.577 1120.53 997.268 1121.39 997.597C1122.21 997.91 1123.06 1000.33 1123.45 1003.44C1123.84 1006.61 1124.91 1009.6 1126.1 1010.88C1128.09 1013.01 1128.35 1013.02 1168.3 1012.76L1208.5 1012.5L1208.33 1007.5C1208.24 1004.67 1207.26 1000.78 1206.08 998.539C1204.94 996.36 1204 993.547 1204 992.289C1204 990.921 1203.4 990 1202.5 990C1201.42 990 1201 988.889 1201 986C1201 983.264 1200.56 982 1199.62 982C1198.81 982 1197.75 980.083 1197.07 977.385C1196.44 974.847 1195.26 972.115 1194.46 971.314C1193.66 970.513 1193 968.089 1193 965.929C1193 963.333 1192.32 961.321 1191 960C1189.76 958.762 1189 956.667 1189 954.5C1189 952.056 1188.55 951 1187.5 951C1186.45 951 1186 949.944 1186 947.5C1186 945.575 1185.55 944 1185 944C1184.45 944 1184 943.38 1184 942.622C1184 941.865 1183.32 940.685 1182.5 940C1181.68 939.315 1181 937.283 1181 935.485C1181 933.5 1180.41 931.988 1179.5 931.638C1178.47 931.245 1178 929.641 1178 926.567C1178 923.198 1177.53 921.819 1176.13 921.07C1174.8 920.358 1174.12 918.586 1173.77 914.928C1173.49 912.1 1172.8 909.496 1172.23 909.141C1171.65 908.786 1170.86 906.753 1170.46 904.623C1170.06 902.492 1168.89 900.031 1167.86 899.153C1166.75 898.197 1166 896.239 1166 894.278C1166 892.031 1165.53 891 1164.5 891C1163.41 891 1163 889.885 1163 886.969C1163 884.389 1162.48 882.739 1161.56 882.387C1160.78 882.084 1159.64 879.527 1159.03 876.705C1158.43 873.884 1157.45 871.276 1156.86 870.911C1156.26 870.546 1155.54 868.131 1155.25 865.545C1154.9 862.457 1154.08 860.445 1152.86 859.681C1151.47 858.812 1151 857.318 1151 853.759C1151 850.393 1150.6 849 1149.63 849C1148.8 849 1148 847.413 1147.62 845C1147.21 842.461 1146.44 841 1145.52 841C1144.54 841 1143.86 839.414 1143.41 836.061C1143.05 833.296 1142.15 830.888 1141.38 830.592C1140.54 830.269 1140 828.564 1140 826.22C1140 823.759 1139.28 821.605 1138 820.23C1136.8 818.939 1136 816.701 1136 814.613C1136 812.705 1135.39 810.536 1134.65 809.794C1133.91 809.052 1132.75 806.77 1132.07 804.722C1131.4 802.675 1130.2 801 1129.42 801C1128.38 801 1128 799.657 1128 796C1128 792.222 1127.63 791 1126.5 791C1125.42 791 1125 789.889 1125 787C1125 784.34 1124.33 782.333 1123.01 781.01C1121.75 779.746 1120.78 777.008 1120.37 773.51C1119.98 770.155 1119.24 768 1118.49 768C1117.81 768 1116.97 766.2 1116.62 764C1116.2 761.412 1115.45 760 1114.49 760C1113.37 760 1113 758.76 1113 755C1113 751.4 1112.61 750 1111.61 750C1110.82 750 1109.94 748.512 1109.57 746.532C1109.21 744.625 1108.19 742.337 1107.31 741.449C1106.42 740.56 1105.48 737.621 1105.22 734.917C1104.92 731.79 1104.27 730 1103.44 730C1102.62 730 1101.89 727.976 1101.45 724.421C1101.04 721.147 1100.18 718.623 1099.38 718.314C1098.55 717.996 1098 716.297 1098 714.046C1098 711.755 1097.23 709.422 1096.02 708.024C1094.93 706.77 1093.76 704.226 1093.41 702.371C1093.05 700.465 1092.17 699 1091.39 699C1090.46 699 1090 697.799 1090 695.36C1090 693.177 1089.36 691.252 1088.4 690.549C1087.5 689.893 1086.56 687.317 1086.27 684.689C1085.92 681.643 1085.26 680 1084.37 680C1083.59 680 1083 678.969 1083 677.625C1083 672.665 1081.68 668.728 1079.85 668.25C1078.45 667.885 1078 666.82 1078 663.883C1078 661.262 1077.56 660 1076.63 660C1075.74 660 1075.08 658.365 1074.74 655.349C1074.44 652.726 1073.56 650.334 1072.72 649.863C1071.9 649.404 1070.93 647.447 1070.57 645.514L1069.91 642L1034.2 642.017L998.5 642.035L996.25 644.408ZM1498 731.5C1498 732.528 1496.97 733 1494.72 733C1492.74 733 1490.8 733.75 1489.82 734.895C1488.93 735.938 1486.35 737.102 1484.1 737.483C1481.56 737.912 1480 738.714 1480 739.588C1480 740.365 1479.06 741 1477.91 741C1476.65 741 1475.6 741.803 1475.29 743C1475 744.1 1473.94 745 1472.93 745C1471.92 745 1470.74 745.616 1470.3 746.369C1469.86 747.122 1468.49 748.052 1467.25 748.436C1465.09 749.106 1465 748.893 1465 743.259C1465 732.87 1467.41 733.5 1427.67 733.5C1408.69 733.5 1392.79 733.875 1392.33 734.333C1391.87 734.792 1391.5 797.567 1391.5 873.833V1012.5L1426 1012.78C1444.98 1012.93 1461.51 1012.81 1462.75 1012.51L1465 1011.96V928.064C1465 864.062 1465.28 844.073 1466.19 843.77C1466.9 843.533 1467.56 840.566 1467.81 836.436C1468.08 832.186 1468.75 829.207 1469.55 828.742C1470.26 828.326 1471.37 826.413 1472 824.492C1472.64 822.572 1473.52 821 1473.96 821C1474.4 821 1475.29 819.71 1475.94 818.134C1476.6 816.557 1478.34 814.645 1479.82 813.885C1481.29 813.125 1482.86 811.94 1483.3 811.252C1483.74 810.563 1484.72 810 1485.48 810C1486.24 810 1487.15 809.1 1487.5 808C1488.02 806.356 1489.01 806 1493.07 806C1496.79 806 1498 805.631 1498 804.5C1498 803.258 1499.89 803 1509 803C1518.11 803 1520 803.258 1520 804.5C1520 805.63 1521.21 806 1524.92 806C1530.73 806 1533 806.719 1533 808.562C1533 809.31 1534.56 810.201 1536.5 810.566C1538.51 810.942 1540 811.816 1540 812.611C1540 813.375 1540.94 814 1542.09 814C1543.31 814 1544.4 814.796 1544.68 815.893C1545.24 818.028 1549.87 819.322 1553.6 818.386C1555.79 817.835 1556 817.278 1556 811.892C1556 808.631 1556.45 806 1557 806C1557.55 806 1558 805.325 1558 804.5C1558 803.675 1558.4 803 1558.89 803C1559.37 803 1560.08 800.975 1560.45 798.5C1560.82 796.025 1561.51 794 1561.98 794C1562.45 794 1563.17 790.977 1563.56 787.281C1563.96 783.586 1565.12 779.072 1566.14 777.251C1567.32 775.145 1568 771.948 1568 768.47C1568 764.274 1568.35 763 1569.5 763C1570.72 763 1571 761.333 1571 754C1571 747.362 1570.67 745 1569.72 745C1569.02 745 1567.67 744.1 1566.73 743C1565.79 741.9 1564.1 741 1562.98 741C1561.86 741 1560.7 740.375 1560.41 739.612C1560.11 738.849 1558.48 737.946 1556.78 737.605C1555.07 737.264 1553.05 736.089 1552.28 734.993C1551.35 733.658 1549.75 733 1547.44 733C1545.05 733 1544 732.543 1544 731.5C1544 730.21 1540.78 730 1521 730C1501.22 730 1498 730.21 1498 731.5ZM2160.64 731.5C2159.82 732.325 2157.59 733 2155.69 733C2153.16 733 2152.1 733.5 2151.75 734.854C2151.39 736.222 2149.95 736.882 2146.23 737.375C2143.2 737.777 2140.97 738.631 2140.63 739.521C2140.3 740.371 2138.79 741 2137.07 741C2135.09 741 2133.7 741.683 2133 743C2132.3 744.317 2130.91 745 2128.93 745C2127.19 745 2125.7 745.628 2125.36 746.5C2125.05 747.325 2124.27 748 2123.64 748C2122.26 748 2117 753.408 2117 754.831C2117 755.386 2115.69 756.129 2114.08 756.482C2112.48 756.834 2110.92 757.77 2110.61 758.561C2110.31 759.352 2109.56 760 2108.95 760C2107.53 760 2102 765.506 2102 766.923C2102 767.515 2101.41 768 2100.7 768C2099.99 768 2098.85 769.532 2098.17 771.405C2097.49 773.277 2096.28 775.063 2095.47 775.373C2094.66 775.683 2094 776.626 2094 777.469C2094 778.311 2093.32 779 2092.5 779C2091.67 779 2091 779.889 2091 781C2091 782.333 2090.33 783 2089 783C2087.37 783 2087 783.667 2087 786.594C2087 789.287 2086.52 790.312 2085.09 790.686C2083.89 790.999 2082.96 792.411 2082.57 794.495C2082.22 796.317 2081.28 798.061 2080.47 798.372C2079.56 798.722 2079 800.281 2079 802.469C2079 804.941 2078.55 806 2077.5 806C2076.51 806 2076 806.993 2076 808.935C2076 812.325 2074.34 817.174 2072.86 818.086C2072.3 818.43 2071.58 820.689 2071.26 823.106C2070.94 825.523 2070.02 827.982 2069.22 828.571C2068.21 829.319 2067.61 832.473 2067.23 839.044C2066.9 844.956 2066.2 848.946 2065.35 849.794C2064.29 850.849 2064 856.231 2064 874.464C2064 894.272 2064.23 897.873 2065.5 898.362C2066.6 898.785 2067 900.524 2067 904.919C2067 911.864 2068.75 921 2070.08 921C2070.59 921 2071 922.589 2071 924.531C2071 926.691 2071.56 928.279 2072.45 928.618C2073.24 928.924 2074.45 931.655 2075.13 934.688C2075.81 937.721 2076.96 940.43 2077.68 940.708C2078.46 941.007 2079 942.808 2079 945.107C2079 947.778 2079.44 949 2080.4 949C2081.25 949 2082.27 950.952 2083 954C2083.73 957.048 2084.75 959 2085.6 959C2086.37 959 2087.01 959.787 2087.02 960.75C2087.04 962.662 2091.11 967 2092.89 967C2093.5 967 2094 968.526 2094 970.392C2094 973.175 2094.45 973.896 2096.5 974.411C2098.11 974.816 2099 975.74 2099 977.019C2099 978.113 2099.67 979 2100.5 979C2101.32 979 2102 979.675 2102 980.5C2102 981.333 2102.89 982 2104 982C2105.33 982 2106 982.667 2106 984C2106 985.1 2106.62 986 2107.38 986C2108.14 986 2109 986.9 2109.29 988C2109.6 989.197 2110.65 990 2111.91 990C2113.33 990 2114 990.637 2114 992C2114 993.129 2114.67 994 2115.53 994C2116.37 994 2117.32 994.675 2117.64 995.5C2117.95 996.325 2119.04 997 2120.05 997C2121.07 997 2123.11 998.125 2124.59 999.5C2126.08 1000.88 2128.35 1002 2129.65 1002C2131.07 1002 2132 1002.59 2132 1003.5C2132 1004.43 2132.94 1005 2134.5 1005C2135.88 1005 2137.85 1005.85 2138.9 1006.9C2139.94 1007.94 2142.19 1009.1 2143.9 1009.48C2145.6 1009.85 2147 1010.52 2147 1010.95C2147 1011.38 2149.72 1012.28 2153.05 1012.93C2156.5 1013.61 2159.35 1014.74 2159.66 1015.56C2160.44 1017.6 2217.14 1017.71 2219.18 1015.69C2219.9 1014.96 2223.2 1013.83 2226.5 1013.17C2229.8 1012.51 2232.64 1011.54 2232.82 1011.02C2233 1010.49 2234.69 1009.77 2236.57 1009.42C2238.5 1009.06 2240 1008.18 2240 1007.4C2240 1006.57 2241.58 1005.77 2244 1005.38C2246.41 1005 2248 1004.2 2248 1003.37C2248 1002.47 2249.2 1002 2251.5 1002C2254.31 1002 2255 1001.61 2255 1000.05C2255 998.603 2255.92 997.918 2258.5 997.434C2260.42 997.073 2262 996.366 2262 995.864C2262 995.362 2263.12 994.523 2264.5 994C2265.88 993.477 2267 992.363 2267 991.525C2267 990.686 2267.68 990 2268.5 990C2269.32 990 2270 989.314 2270 988.475C2270 987.637 2271.12 986.523 2272.5 986C2273.88 985.477 2275 984.363 2275 983.525C2275 982.686 2275.68 982 2276.5 982C2277.32 982 2278 981.325 2278 980.5C2278 979.675 2278.69 979 2279.52 979C2280.36 979 2281.48 977.875 2282 976.5C2282.52 975.125 2283.59 974 2284.36 974C2285.19 974 2286.05 972.54 2286.43 970.5C2286.83 968.405 2287.67 967 2288.54 967C2289.34 967 2290 966.325 2290 965.5C2290 964.675 2290.68 964 2291.5 964C2292.32 964 2293 963.116 2293 962.035C2293 960.955 2293.86 959.608 2294.92 959.044C2295.97 958.479 2297.15 956.576 2297.54 954.815C2297.93 953.054 2298.8 951.056 2299.48 950.374C2300.16 949.692 2301.02 947.304 2301.37 945.067C2301.8 942.424 2302.54 941 2303.51 941C2304.61 941 2305 939.817 2305 936.5C2305 933.266 2305.4 932 2306.43 932C2307.35 932 2308.25 930.088 2308.98 926.587C2309.6 923.609 2310.76 920.923 2311.55 920.618C2312.66 920.193 2313 918.036 2313 911.392C2313 904.59 2313.35 902.468 2314.6 901.548C2316 900.524 2316.2 897.102 2316.19 874.484C2316.17 852.812 2315.92 848.417 2314.69 847.512C2313.6 846.721 2313.11 843.814 2312.85 836.678C2312.65 830.923 2312.04 826.633 2311.38 826.213C2310.76 825.821 2309.92 823.925 2309.51 822C2309.1 820.075 2307.92 817.695 2306.88 816.711C2305.59 815.48 2305 813.53 2305 810.461C2305 807.178 2304.61 806 2303.51 806C2302.55 806 2301.8 804.588 2301.38 802C2301.03 799.8 2300.18 798 2299.5 798C2298.81 798 2297.98 796.664 2297.66 795.031C2297.33 793.398 2296.15 791.148 2295.03 790.031C2293.91 788.914 2293 786.875 2293 785.5C2293 783.944 2292.43 783 2291.5 783C2290.67 783 2290 782.111 2290 781C2290 779.9 2289.49 779 2288.86 779C2286.98 779 2283.22 774.293 2282.51 771.045C2282.05 768.941 2281.25 768 2279.92 768C2278.67 768 2278 767.306 2278 766C2278 764.871 2277.33 764 2276.47 764C2275.63 764 2274.68 763.342 2274.38 762.538C2274.07 761.734 2272.99 760.815 2271.99 760.496C2270.98 760.176 2268.27 758.134 2265.96 755.958C2263.64 753.781 2261.36 752 2260.88 752C2260.39 752 2260 751.334 2260 750.519C2260 749.705 2258.88 748.756 2257.5 748.411C2256.12 748.066 2255 747.157 2255 746.392C2255 745.473 2253.83 745 2251.57 745C2249.01 745 2247.97 744.488 2247.5 743C2247.03 741.512 2245.99 741 2243.43 741C2241.15 741 2240 740.529 2240 739.594C2240 738.663 2238.29 737.953 2234.95 737.492C2231.6 737.032 2229.49 736.155 2228.71 734.899C2227.82 733.476 2226.35 733 2222.87 733C2219.65 733 2218.04 732.536 2217.64 731.5C2217.15 730.217 2213.09 730 2189.6 730C2166.53 730 2161.9 730.239 2160.64 731.5ZM2439 731.5C2439 732.668 2437.66 733 2432.96 733C2428.36 733 2426.42 733.463 2424.83 734.944C2423.61 736.085 2420.55 737.162 2417.44 737.551C2414.33 737.939 2411.91 738.792 2411.6 739.607C2411.29 740.413 2409.65 741 2407.72 741C2405.76 741 2403.49 741.827 2402.23 743C2400.92 744.219 2398.7 745 2396.54 745C2394.21 745 2393 745.468 2393 746.372C2393 747.196 2391.43 747.996 2389.07 748.373C2386.35 748.808 2384.94 749.621 2384.5 751.001C2384.06 752.401 2382.99 753 2380.93 753C2378.99 753 2378 753.508 2378 754.5C2378 755.325 2377.15 756 2376.11 756C2373.7 756 2372.43 759.1 2374.26 760.474C2375.02 761.038 2376.28 762.962 2377.06 764.75C2377.85 766.538 2379.05 768 2379.74 768C2380.43 768 2381 769.093 2381 770.429C2381 771.764 2381.58 773.452 2382.29 774.179C2383 774.905 2384.22 777.075 2384.99 779C2385.76 780.925 2386.64 782.725 2386.94 783C2387.25 783.275 2388.28 785.188 2389.23 787.25C2390.19 789.313 2391.42 791 2391.98 791C2392.54 791 2393 791.9 2393 793C2393 794.111 2393.67 795 2394.5 795C2395.43 795 2396 795.944 2396 797.5C2396 798.875 2396.89 800.889 2397.98 801.975C2399.06 803.061 2400.23 805.086 2400.58 806.475C2401.33 809.453 2401.04 809.38 2404.64 807.506C2406.21 806.685 2408.51 806.01 2409.75 806.006C2411.08 806.003 2412 805.387 2412 804.5C2412 803.429 2413.09 803 2415.81 803C2418.14 803 2420.4 802.279 2421.6 801.153C2422.7 800.136 2425.76 799.062 2428.42 798.762C2431.07 798.463 2433.57 797.69 2433.97 797.045C2434.37 796.4 2438.76 795.492 2443.73 795.026C2448.69 794.56 2454.14 793.464 2455.83 792.589C2458.22 791.351 2462.05 791.005 2473.2 791.022C2485.85 791.042 2487.79 791.27 2490 793C2491.38 794.076 2493.98 794.966 2495.78 794.978C2497.73 794.991 2499.29 795.597 2499.63 796.473C2499.94 797.283 2501.72 798.233 2503.6 798.584C2506.04 799.043 2507 799.755 2507 801.111C2507 802.333 2507.71 803 2509 803C2510.55 803 2511 803.667 2511 805.95C2511 807.628 2511.7 809.291 2512.62 809.806C2515.53 811.437 2515.85 836 2512.96 836C2512.43 836 2512 835.382 2512 834.627C2512 833.71 2510.34 833.095 2506.99 832.773C2504.23 832.508 2501.2 831.607 2500.24 830.77C2499.06 829.734 2495.48 829.085 2489.04 828.737C2483.41 828.434 2479.43 827.776 2479.2 827.113C2478.69 825.559 2451.31 825.567 2450.79 827.122C2450.56 827.817 2445.95 828.484 2438.67 828.872C2430.09 829.331 2426.69 829.885 2426.04 830.93C2425.49 831.827 2422.86 832.527 2419 832.806C2415.03 833.093 2412.65 833.741 2412.31 834.626C2412.02 835.382 2410.45 836 2408.83 836C2407.2 836 2404.39 837.125 2402.59 838.5C2400.79 839.875 2398.57 841 2397.66 841C2396.75 841 2396 841.675 2396 842.5C2396 843.325 2395.14 844 2394.08 844C2391.1 844 2389 845.078 2389 846.607C2389 847.373 2388.09 848 2386.97 848C2385.85 848 2384.68 848.675 2384.36 849.5C2384.05 850.325 2383.16 851 2382.39 851C2381.63 851 2381 851.675 2381 852.5C2381 853.325 2380.32 854 2379.5 854C2378.68 854 2378 854.45 2378 855C2378 855.55 2377.12 856 2376.04 856C2374.6 856 2373.92 856.918 2373.43 859.5C2373.03 861.631 2372.2 863 2371.29 863C2370.48 863 2369.58 863.9 2369.29 865C2369 866.1 2368.14 867 2367.38 867C2366.62 867 2366 867.914 2366 869.031C2366 870.149 2365.37 871.306 2364.59 871.603C2363.82 871.9 2362.6 873.574 2361.88 875.322C2361.17 877.07 2360 879.095 2359.29 879.821C2358.58 880.548 2358 882.299 2358 883.711C2358 885.124 2357.28 886.808 2356.39 887.455C2355.28 888.268 2354.53 891.22 2353.94 897.05C2353.47 901.681 2352.62 905.627 2352.04 905.819C2350.72 906.259 2350.61 932 2351.93 932C2352.44 932 2353.13 934.588 2353.46 937.75C2354.83 950.683 2355.12 952 2356.56 952C2357.54 952 2358 953.126 2358 955.531C2358 957.638 2358.57 959.28 2359.4 959.601C2360.17 959.896 2361.09 961.682 2361.45 963.569C2361.81 965.49 2362.69 967 2363.46 967C2364.27 967 2365.1 968.614 2365.5 971C2365.88 973.27 2366.74 975 2367.48 975C2368.19 975 2369.07 976.575 2369.43 978.5C2369.83 980.595 2370.67 982 2371.54 982C2372.34 982 2373 982.485 2373 983.077C2373 984.476 2378.52 990 2379.92 990C2380.52 990 2381 990.9 2381 992C2381 993.344 2381.67 994 2383.03 994C2384.15 994 2385.32 994.675 2385.64 995.5C2385.95 996.325 2386.86 997 2387.65 997C2388.44 997 2390.22 998.125 2391.59 999.5C2392.97 1000.88 2395.15 1002 2396.44 1002C2397.73 1002 2399.05 1002.68 2399.36 1003.5C2399.68 1004.33 2400.74 1005 2401.73 1005C2402.71 1005 2404.08 1005.9 2404.77 1007C2405.46 1008.11 2407.1 1009 2408.46 1009C2409.8 1009 2411.26 1009.65 2411.71 1010.44C2412.16 1011.25 2415.31 1012.33 2418.95 1012.92C2422.8 1013.54 2425.74 1014.57 2426.25 1015.48C2426.98 1016.78 2430.89 1017 2453.55 1017C2478.67 1017 2480.1 1016.9 2482 1015C2483.31 1013.69 2485.33 1013 2487.85 1013C2490.26 1013 2492.55 1012.25 2494 1011C2495.27 1009.9 2497.08 1009 2498.04 1009C2498.99 1009 2500 1008.1 2500.29 1007C2500.67 1005.54 2501.65 1005 2503.91 1005C2505.99 1005 2507 1004.51 2507 1003.5C2507 1002.64 2507.9 1002 2509.09 1002C2510.36 1002 2511.4 1001.19 2511.72 999.959C2512.73 996.104 2514.5 998.666 2515.1 1004.85C2515.43 1008.25 2516.03 1011.36 2516.43 1011.77C2517.33 1012.66 2584.19 1013.34 2588.77 1012.5L2592.05 1011.9L2591.77 910.7C2591.53 819.641 2591.34 809.149 2589.87 806C2588.98 804.075 2587.93 799.95 2587.56 796.833C2587.14 793.33 2586.33 790.956 2585.44 790.615C2584.62 790.3 2584 788.74 2584 786.99C2584 785.299 2583.1 782.951 2582 781.77C2580.9 780.589 2580 778.583 2580 777.311C2580 776.006 2579.4 775 2578.61 775C2577.82 775 2576.94 773.505 2576.57 771.5C2576.08 768.918 2575.4 768 2573.96 768C2572.67 768 2572 767.318 2572 766C2572 764.9 2571.38 764 2570.62 764C2569.86 764 2569 763.1 2568.71 762C2568.42 760.9 2567.52 760 2566.71 760C2565.9 760 2565 759.1 2564.71 758C2564.42 756.9 2563.47 756 2562.59 756C2561.72 756 2561 755.325 2561 754.5C2561 753.667 2560.11 753 2559 753C2557.89 753 2557 752.333 2557 751.5C2557 750.675 2556.32 750 2555.5 750C2554.68 750 2554 749.55 2554 749C2554 748.45 2553.15 748 2552.11 748C2551.07 748 2549.95 747.325 2549.64 746.5C2549.32 745.675 2548.23 745 2547.22 745C2546.21 745 2544.41 744.1 2543.23 743C2542.05 741.9 2539.7 741 2538.01 741C2536.27 741 2534.7 740.381 2534.39 739.575C2534.09 738.791 2532.09 737.853 2529.95 737.492C2527.81 737.13 2524.96 735.971 2523.62 734.917C2522.04 733.675 2519.61 733 2516.7 733C2513.63 733 2512.03 732.525 2511.64 731.5C2511.14 730.205 2506.14 730 2475.03 730C2443.67 730 2439 730.194 2439 731.5ZM3383.36 731.5C3382.99 732.482 3381.43 733 3378.85 733C3376.35 733 3374.16 733.701 3372.84 734.932C3371.7 735.994 3369.06 737.152 3366.96 737.506C3364.87 737.86 3362.91 738.791 3362.61 739.575C3362.28 740.436 3360.67 741 3358.53 741C3356.11 741 3355 741.456 3355 742.455C3355 743.325 3353.6 744.173 3351.5 744.566C3349.49 744.942 3348 745.816 3348 746.611C3348 747.375 3347.1 748 3346 748C3344.9 748 3344 748.45 3344 749C3344 749.55 3343.32 750 3342.5 750C3341.68 750 3341 750.464 3341 751.031C3341 751.599 3340.22 752.361 3339.27 752.726C3338.32 753.09 3336.06 754.876 3334.24 756.694C3332.42 758.512 3330.5 760 3329.97 760C3329.44 760 3329 760.848 3329 761.883C3329 762.926 3328.11 764 3327 764.29C3325.9 764.577 3325 765.53 3325 766.406C3325 767.333 3324.16 768 3323 768C3321.9 768 3321 768.645 3321 769.433C3321 770.221 3320.1 771.151 3319 771.5C3317.9 771.849 3317 772.936 3317 773.914C3317 774.893 3316.1 776.732 3315 778C3313.9 779.268 3313 780.86 3313 781.536C3313 782.213 3312.1 783.002 3311 783.29C3309.47 783.69 3309 784.654 3309 787.406C3309 789.934 3308.55 791 3307.5 791C3306.68 791 3306 791.717 3306 792.594C3306 793.47 3305.1 794.423 3304 794.71C3302.6 795.077 3302 796.074 3302 798.045C3302 799.592 3301.34 801.513 3300.54 802.314C3299.74 803.115 3298.55 805.96 3297.88 808.635C3297.22 811.311 3296.08 813.86 3295.34 814.3C3294.48 814.812 3294 817.057 3294 820.55C3294 824.464 3293.62 826 3292.65 826C3291.67 826 3291.11 828.355 3290.64 834.55C3290.21 840.045 3289.36 844.049 3288.24 845.758C3286.7 848.113 3286.5 851.409 3286.5 874.744C3286.5 893.351 3286.83 901.283 3287.64 901.787C3289.32 902.842 3290.99 909.769 3290.99 915.75C3291 919.748 3291.36 921 3292.5 921C3293.64 921 3294 922.241 3294 926.171C3294 929.533 3294.57 931.968 3295.62 933.131C3296.51 934.114 3297.47 936.962 3297.75 939.459C3298.15 943.046 3298.65 944 3300.13 944C3301.6 944 3302 944.749 3302 947.542C3302 949.701 3302.78 951.921 3304 953.23C3305.1 954.411 3306 956.192 3306 957.189C3306 958.185 3306.68 959 3307.5 959C3308.36 959 3309 959.899 3309 961.094C3309 962.338 3309.8 963.397 3310.98 963.704C3312.26 964.04 3313.17 965.404 3313.59 967.61C3313.95 969.531 3314.83 971 3315.61 971C3316.38 971 3317 971.848 3317 972.883C3317 973.926 3317.89 975 3319 975.29C3320.1 975.577 3321 976.53 3321 977.406C3321 978.283 3321.68 979 3322.5 979C3323.32 979 3324 979.675 3324 980.5C3324 981.433 3324.94 982 3326.5 982C3328.5 982 3329 982.5 3329 984.5C3329 986.056 3329.57 987 3330.5 987C3331.32 987 3332 987.675 3332 988.5C3332 989.325 3332.72 990 3333.59 990C3334.47 990 3335.42 990.9 3335.71 992C3336 993.107 3337.07 994 3338.12 994C3339.15 994 3340 994.625 3340 995.389C3340 996.184 3341.49 997.058 3343.5 997.434C3345.5 997.81 3347 998.684 3347 999.478C3347 1000.24 3347.99 1001.18 3349.2 1001.57C3350.41 1001.95 3352.02 1002.88 3352.77 1003.63C3353.53 1004.38 3355.22 1005 3356.54 1005C3357.91 1005 3359.39 1005.86 3360 1007C3360.7 1008.31 3362.09 1009 3364.03 1009C3365.95 1009 3367 1009.51 3367 1010.44C3367 1011.4 3368.57 1012.09 3371.75 1012.5C3380.13 1013.61 3381.82 1014.09 3382.39 1015.56C3382.85 1016.77 3387.54 1017 3411.25 1017C3436.12 1017 3439.85 1016.8 3441.95 1015.32C3443.26 1014.4 3446.62 1013.29 3449.41 1012.85C3452.2 1012.41 3454.63 1011.6 3454.81 1011.05C3455 1010.51 3456.75 1009.76 3458.7 1009.4C3460.97 1008.97 3462.44 1008.05 3462.75 1006.86C3463.1 1005.51 3464.16 1005 3466.62 1005C3468.96 1005 3470 1004.54 3470 1003.5C3470 1002.56 3470.95 1002 3472.55 1002C3473.98 1002 3476.11 1000.91 3477.41 999.5C3478.69 998.125 3480.46 997 3481.36 997C3482.26 997 3483 996.325 3483 995.5C3483 994.508 3483.99 994 3485.93 994C3487.99 994 3489.06 993.401 3489.5 992C3489.85 990.9 3490.78 990 3491.57 990C3492.35 990 3493 989.13 3493 988.067C3493 987.004 3493.9 985.849 3495 985.5C3496.1 985.151 3497 984.221 3497 983.433C3497 982.645 3497.68 982 3498.5 982C3499.32 982 3500 981.334 3500 980.519C3500 979.705 3501.12 978.756 3502.5 978.411C3504.06 978.018 3505 977.075 3505 975.892C3505 974.851 3505.66 974 3506.46 974C3507.32 974 3508.17 972.614 3508.55 970.592C3508.96 968.421 3509.88 967.003 3511.09 966.686C3512.2 966.396 3513 965.312 3513 964.094C3513 962.942 3513.4 962 3513.89 962C3514.37 962 3515.52 960.425 3516.43 958.5C3517.35 956.575 3518.52 955 3519.05 955C3519.57 955 3520 953.411 3520 951.469C3520 949.252 3520.56 947.723 3521.5 947.362C3522.32 947.045 3523 946.159 3523 945.393C3523 944.627 3523.45 944 3524 944C3524.55 944 3525 943.373 3525 942.607C3525 941.841 3525.68 940.955 3526.5 940.638C3527.58 940.223 3528 938.526 3528 934.531C3528 930.497 3528.37 929 3529.38 929C3530.32 929 3531.09 926.747 3531.82 921.845C3532.4 917.91 3533.29 914.423 3533.79 914.095C3534.29 913.768 3534.97 908.369 3535.29 902.097C3535.69 894.304 3536.29 890.437 3537.19 889.881C3539.16 888.657 3539.07 857.28 3537.09 856.055C3536.07 855.424 3535.55 852.196 3535.21 844.342C3534.88 836.609 3534.35 833.271 3533.37 832.7C3532.59 832.243 3532 830.261 3532 828.075C3532 822.382 3530.91 818 3529.5 818C3528.7 818 3528.08 815.944 3527.77 812.3C3527.51 809.166 3526.78 806.428 3526.15 806.217C3525.52 806.006 3525 805.196 3525 804.417C3525 803.638 3524.55 803 3524 803C3523.45 803 3523 802.148 3523 801.107C3523 800.066 3522.32 798.955 3521.5 798.638C3520.68 798.322 3520 797.149 3520 796.031C3520 794.914 3519.36 794 3518.59 794C3517.72 794 3516.91 792.459 3516.5 790C3516.12 787.724 3515.26 786 3514.52 786C3513.8 786 3512.91 784.783 3512.54 783.295C3512.16 781.807 3510.99 779.981 3509.93 779.238C3508.87 778.495 3508 777.237 3508 776.443C3508 775.649 3507.32 775 3506.5 775C3505.68 775 3505 774.33 3505 773.511C3505 771.337 3501.84 768 3499.78 768C3498.76 768 3497.99 767.248 3497.97 766.25C3497.92 763.638 3495.71 761.217 3492.69 760.458C3490.96 760.023 3490 759.111 3490 757.892C3490 756.851 3489.32 756 3488.5 756C3487.68 756 3487 755.325 3487 754.5C3487 753.644 3486.1 753 3484.91 753C3483.65 753 3482.6 752.197 3482.29 751C3482 749.9 3481.21 749 3480.54 749C3479.86 749 3478.27 748.1 3477 747C3475.73 745.9 3473.64 745 3472.35 745C3470.94 745 3470 744.407 3470 743.512C3470 742.549 3468.59 741.798 3466.01 741.385C3463.81 741.034 3461.04 739.904 3459.85 738.873C3458.67 737.843 3456.52 737 3455.09 737C3453.56 737 3451.96 736.169 3451.23 735C3450.25 733.434 3448.9 733 3444.99 733C3441.22 733 3440 732.633 3440 731.5C3440 730.202 3436.22 730 3411.97 730C3387.97 730 3383.85 730.216 3383.36 731.5ZM3688 731.5C3688 732.612 3686.83 733 3683.49 733C3680.22 733 3678.51 733.549 3677.27 734.996C3676.33 736.093 3674.12 737.263 3672.35 737.594C3670.58 737.925 3668.9 738.827 3668.6 739.598C3668.3 740.387 3666.7 741 3664.94 741C3662.65 741 3661.67 741.538 3661.29 743C3660.95 744.294 3659.93 745 3658.38 745C3656.93 745 3656 745.586 3656 746.5C3656 747.325 3655.59 748 3655.08 748C3654.58 748 3653.45 748.273 3652.58 748.607C3651.27 749.111 3651 748.357 3651 744.154C3651 738.028 3649.48 734.364 3646.63 733.598C3643.83 732.848 3585.1 732.83 3581.36 733.578C3579.57 733.936 3578.01 735.148 3577.24 736.777C3576.27 738.823 3576.02 768.851 3576.1 873.449C3576.16 947.177 3576.51 1008.63 3576.89 1010L3577.59 1012.5L3612.04 1012.78C3630.99 1012.93 3647.51 1012.81 3648.75 1012.51L3651 1011.96V930.064C3651 874.911 3651.34 848.055 3652.03 847.824C3652.59 847.636 3653.34 842.801 3653.69 837.08C3654.19 828.891 3654.71 826.287 3656.16 824.839C3657.17 823.828 3658 821.875 3658 820.5C3658 818.944 3658.57 818 3659.5 818C3660.32 818 3661 817.271 3661 816.38C3661 814.414 3669.57 806 3671.57 806C3672.36 806 3673 805.382 3673 804.627C3673 803.707 3674.68 803.093 3678.11 802.764C3680.91 802.494 3683.59 801.666 3684.05 800.924C3685.21 799.035 3703.94 798.317 3708.01 800.005C3709.65 800.686 3711 801.638 3711 802.121C3711 802.605 3713.47 803 3716.5 803C3720.72 803 3722 803.348 3722 804.5C3722 805.333 3722.89 806 3724 806C3725.23 806 3726.01 806.678 3726.03 807.75C3726.05 808.712 3727.85 811.288 3730.03 813.473C3732.21 815.658 3734 818.246 3734 819.223C3734 820.2 3734.62 821 3735.37 821C3736.3 821 3736.91 822.695 3737.24 826.168C3737.58 829.657 3738.35 831.782 3739.62 832.711C3741.43 834.035 3741.51 837.332 3741.84 922.95L3742.18 1011.81L3744.34 1012.39C3747.28 1013.18 3810.95 1013.16 3814.9 1012.37L3818.05 1011.74L3817.78 922.833C3817.58 859.209 3817.19 833.724 3816.39 833.213C3815.75 832.797 3815 827.289 3814.59 820C3814.11 811.336 3813.48 807.18 3812.54 806.457C3811.79 805.884 3810.86 803.261 3810.47 800.628C3810.07 797.995 3809.13 795.604 3808.38 795.313C3807.55 794.995 3807 793.292 3807 791.015C3807 788.889 3806.35 786.704 3805.5 786.004C3804.68 785.321 3803.47 782.904 3802.8 780.631C3802.14 778.359 3801.02 776.14 3800.3 775.7C3799.59 775.26 3799 773.531 3799 771.857C3799 769.654 3798.45 768.668 3797 768.29C3795.89 768 3795 766.926 3795 765.883C3795 764.848 3794.32 764 3793.5 764C3792.68 764 3792 763.314 3792 762.475C3792 761.637 3790.88 760.523 3789.5 760C3788.12 759.477 3787 758.363 3787 757.525C3787 756.686 3786.32 756 3785.5 756C3784.68 756 3784 755.491 3784 754.868C3784 753.12 3775.47 745 3773.63 745C3772.73 745 3772 744.55 3772 744C3772 743.45 3771.32 743 3770.5 743C3769.68 743 3769 742.55 3769 742C3769 741.45 3767.88 741 3766.5 741C3764.99 741 3764 740.429 3764 739.561C3764 738.611 3762.39 737.882 3759.25 737.414C3756.38 736.987 3753.98 735.972 3753.19 734.853C3752.34 733.648 3750.66 733 3748.37 733C3746.44 733 3744.18 732.325 3743.36 731.5C3742.1 730.241 3737.53 730 3714.93 730C3691.66 730 3688 730.204 3688 731.5ZM1256.75 733.69C1255.24 733.934 1254 734.776 1254 735.566C1254 736.355 1253.32 737 1252.5 737C1251.17 737 1251 752.931 1251 874.383V1011.77L1253.25 1012.37C1256.18 1013.16 1321.82 1013.16 1324.75 1012.37L1327 1011.77V874.406V737.046L1324.3 735.273C1321.87 733.679 1318.45 733.487 1290.55 733.374C1273.47 733.305 1258.26 733.447 1256.75 733.69ZM2793.1 735.723L2790 738.445V875.098V1011.75L2793.12 1012.38C2797.13 1013.18 2860.76 1013.17 2863.75 1012.37L2866 1011.77V874.836V737.905L2863.35 735.452L2860.71 733H2828.46H2796.21L2793.1 735.723ZM3160.52 734.309C3155.84 737.129 3156.04 730.69 3156.27 874.667C3156.4 949.558 3156.87 1011.21 3157.33 1011.67C3158.32 1012.65 3222.56 1013.4 3228.75 1012.5L3233 1011.88V875.542V739.206L3230.28 736.103L3227.55 733L3195.03 733.059C3171.73 733.101 3161.94 733.456 3160.52 734.309ZM1032.87 747.869C1033.9 748.897 1035.29 752.047 1035.97 754.869C1036.72 758.015 1037.74 760 1038.6 760C1039.63 760 1040 761.452 1040 765.5C1040 769.722 1040.35 771 1041.5 771C1042.49 771 1043 771.986 1043 773.875C1043 778.673 1044.18 783 1045.48 783C1046.25 783 1046.94 785.149 1047.3 788.656C1047.62 791.767 1048.35 794.597 1048.91 794.944C1049.47 795.291 1050.43 797.92 1051.05 800.787C1051.76 804.093 1052.68 806 1053.58 806C1054.57 806 1055 807.208 1055 809.95C1055 812.189 1055.58 814.247 1056.34 814.7C1057.08 815.14 1058.24 817.744 1058.92 820.487C1059.59 823.229 1060.61 825.761 1061.18 826.113C1061.75 826.465 1062.46 828.946 1062.77 831.626C1063.07 834.307 1063.87 836.95 1064.55 837.5C1065.23 838.05 1066.09 840.664 1066.46 843.308C1066.85 846.041 1067.76 848.353 1068.57 848.665C1069.54 849.038 1070 850.787 1070 854.107V859H1032.62H995.233L994.671 856.851C994.015 854.342 994.942 848.748 996.146 847.948C996.603 847.645 997.437 844.971 997.999 842.007C998.561 839.042 999.691 835.594 1000.51 834.344C1001.33 833.093 1002 830.465 1002 828.504C1002 826.384 1002.56 824.721 1003.39 824.405C1004.15 824.112 1005.33 821.905 1006 819.5C1006.67 817.095 1007.85 814.888 1008.61 814.595C1009.57 814.23 1010 812.327 1010 808.531C1010 804.434 1010.37 803 1011.41 803C1012.3 803 1013.08 801.421 1013.51 798.75C1013.88 796.413 1014.76 793.6 1015.44 792.5C1016.13 791.4 1016.94 788.338 1017.23 785.696C1017.54 782.917 1018.46 780.387 1019.4 779.696C1020.37 778.986 1021.29 776.364 1021.66 773.25C1022.07 769.793 1022.74 768 1023.64 768C1024.56 768 1025 766.707 1025 764C1025 761.187 1025.43 760 1026.44 760C1027.4 760 1028.08 758.43 1028.49 755.25C1029.33 748.817 1029.94 746 1030.52 746C1030.78 746 1031.84 746.841 1032.87 747.869ZM3421.58 803C3428.4 803 3430 803.285 3430 804.5C3430 805.352 3430.9 806 3432.08 806C3434.23 806 3440 811.038 3440 812.923C3440 813.515 3440.72 814 3441.59 814C3442.47 814 3443.42 814.9 3443.71 816C3444 817.1 3444.86 818 3445.62 818C3446.38 818 3447 818.675 3447 819.5C3447 820.325 3447.67 821 3448.48 821C3449.29 821 3450.24 822.125 3450.59 823.5C3450.93 824.875 3451.79 826 3452.49 826C3453.97 826 3454.97 829.102 3454.99 833.75C3455 835.966 3455.48 837 3456.5 837C3457.64 837 3458 838.229 3458 842.057C3458 847.867 3459.82 856 3461.12 856C3461.6 856 3462 863.65 3462 873C3462 882.35 3461.63 890 3461.17 890C3460.01 890 3458 899.258 3458 904.576C3458 907.842 3457.61 909 3456.5 909C3455.43 909 3455 910.094 3455 912.847C3455 915.259 3454.25 917.554 3453 919C3451.9 920.268 3451 921.86 3451 922.536C3451 923.213 3450.1 924.002 3449 924.29C3447.8 924.603 3447 925.654 3447 926.906C3447 928.333 3446.36 929 3445 929C3443.89 929 3443 929.667 3443 930.5C3443 932.165 3435.58 940 3434 940C3433.45 940 3432.1 940.9 3431 942C3429.16 943.844 3427.67 944 3411.91 944C3396.33 944 3394.59 943.823 3392.27 942C3390.87 940.9 3389.13 940 3388.4 940C3387.67 940 3386.59 939.1 3386 938C3385.41 936.9 3384.27 936 3383.47 936C3382.66 936 3382 935.1 3382 934C3382 932.889 3381.33 932 3380.5 932C3379.68 932 3379 931.377 3379 930.617C3379 929.856 3378.1 928.998 3377 928.71C3375.8 928.397 3375 927.346 3375 926.094C3375 924.942 3374.37 924 3373.6 924C3372.75 924 3371.73 922.048 3371 919C3370.27 915.952 3369.25 914 3368.4 914C3367.36 914 3367 912.484 3367 908.05C3367 904.057 3366.55 901.836 3365.63 901.3C3364.57 900.687 3364.17 896.651 3363.9 884C3363.32 857.312 3363.74 848 3365.5 848C3366.7 848 3367 846.513 3367 840.617C3367 834.175 3367.25 833.169 3368.92 832.731C3370.32 832.366 3371.03 830.98 3371.52 827.681C3371.9 825.181 3372.84 822.893 3373.6 822.599C3374.37 822.304 3375 821.149 3375 820.031C3375 818.667 3375.66 818 3377 818C3378.1 818 3379 817.489 3379 816.865C3379 815.523 3383.09 811.562 3385.39 810.68C3386.28 810.341 3387 809.149 3387 808.031C3387 806.376 3387.65 806 3390.5 806C3392.9 806 3394 805.542 3394 804.54C3394 803.405 3395.84 803.008 3402.25 802.753C3406.79 802.572 3411.1 802.554 3411.83 802.712C3412.56 802.871 3416.95 803 3421.58 803ZM2209 804.5C2209 805.325 2209.66 806 2210.46 806C2211.26 806 2213.03 807.125 2214.41 808.5C2215.78 809.875 2217.61 811 2218.46 811C2219.31 811 2220 811.645 2220 812.433C2220 813.221 2220.87 814.141 2221.93 814.478C2223.01 814.822 2224.15 816.388 2224.51 818.045C2224.87 819.67 2225.8 821 2226.58 821C2227.43 821 2228 822.007 2228 823.5C2228 825.333 2228.53 826 2230 826C2231.62 826 2232 826.667 2232 829.5C2232 831.712 2232.48 833 2233.3 833C2234.15 833 2235.05 835.619 2235.85 840.412C2236.63 845.053 2237.64 848.033 2238.55 848.381C2239.76 848.846 2240 852.914 2240 873.064C2240 895.618 2239.87 897.375 2237.99 900.01C2236.89 901.561 2235.71 904.867 2235.36 907.357C2235.02 909.847 2234.13 912.121 2233.37 912.411C2232.62 912.7 2232 914.286 2232 915.933C2232 917.906 2231.32 919.295 2230 920C2228.9 920.589 2228 921.697 2228 922.464C2228 923.23 2227.43 924.452 2226.74 925.179C2226.04 925.905 2224.93 927.737 2224.26 929.25C2223.59 930.763 2222.36 932 2221.52 932C2220.67 932 2220 932.876 2220 934C2220 935.1 2219.36 936 2218.57 936C2217.79 936 2216.53 936.616 2215.77 937.368C2215.02 938.121 2213.41 939.051 2212.2 939.436C2210.99 939.821 2209.53 941.005 2208.96 942.068C2208 943.867 2206.7 944 2190 944C2173.35 944 2172 943.863 2171.04 942.081C2170.48 941.026 2168.66 939.865 2167.01 939.502C2165.35 939.138 2164 938.457 2164 937.988C2164 937.519 2163.1 936.849 2162 936.5C2160.9 936.151 2160 935.206 2160 934.401C2160 933.596 2159.32 932.678 2158.5 932.362C2157.68 932.045 2157 931.231 2157 930.554C2157 929.876 2155.88 928.808 2154.5 928.182C2152.64 927.333 2152 926.274 2152 924.021C2152 922.002 2151.5 921 2150.5 921C2149.57 921 2149 920.056 2149 918.5C2149 917.125 2148.14 915.14 2147.09 914.089C2145.81 912.805 2144.95 910.038 2144.48 905.654C2144.04 901.529 2143.27 898.934 2142.39 898.596C2140.35 897.814 2140.34 851.801 2142.38 849.764C2143.14 849.005 2144.08 845.164 2144.48 841.229C2145.06 835.445 2145.56 833.957 2147.1 833.469C2148.48 833.03 2149 831.928 2149 829.433C2149 827.048 2149.46 826 2150.5 826C2151.43 826 2152 825.056 2152 823.5C2152 821.944 2152.57 821 2153.5 821C2154.32 821 2155 820.325 2155 819.5C2155 818.675 2155.45 818 2156 818C2156.55 818 2157 817.373 2157 816.607C2157 815.841 2157.68 814.955 2158.5 814.638C2159.32 814.322 2160 813.426 2160 812.648C2160 811.87 2160.9 810.998 2162 810.71C2163.1 810.423 2164 809.475 2164 808.605C2164 807.533 2165.29 806.818 2168 806.384C2170.41 805.998 2172 805.2 2172 804.372C2172 803.259 2175.49 803 2190.5 803C2206.28 803 2209 803.221 2209 804.5ZM2496.01 887.75C2496.02 889.187 2501.43 891 2505.7 891C2508.76 891 2510 891.412 2510 892.43C2510 893.217 2511.01 894.005 2512.25 894.18C2514.46 894.495 2514.51 894.754 2514.8 911C2515.14 929.831 2514.56 936 2512.44 936C2511.65 936 2511 936.675 2511 937.5C2511 938.325 2510.49 939 2509.86 939C2509.24 939 2507.69 940.125 2506.41 941.5C2505.11 942.906 2502.98 944 2501.55 944C2499.95 944 2499 944.559 2499 945.5C2499 946.325 2498.17 947 2497.16 947C2496.14 947 2494.53 947.863 2493.57 948.917C2492.53 950.072 2489.78 951.114 2486.67 951.538C2483.83 951.925 2481.18 952.75 2480.79 953.371C2479.77 954.974 2455.19 954.922 2454.2 953.315C2453.79 952.663 2451.15 951.823 2448.32 951.448C2444.47 950.937 2443.05 950.292 2442.68 948.883C2442.41 947.847 2441.47 947 2440.59 947C2439.72 947 2439 946.325 2439 945.5C2439 944.675 2438.13 944 2437.07 944C2436 944 2434.85 943.1 2434.5 942C2434.15 940.9 2433.22 940 2432.43 940C2431.46 940 2431 938.871 2431 936.5C2431 934.056 2430.55 933 2429.5 933C2428.24 933 2428 930.833 2428 919.5C2428 908.167 2428.24 906 2429.5 906C2430.54 906 2431 904.957 2431 902.617C2431 900.034 2431.49 899.105 2433.07 898.691C2434.21 898.393 2435.39 897.215 2435.69 896.074C2435.99 894.933 2436.86 894 2437.62 894C2438.38 894 2439 893.325 2439 892.5C2439 891.479 2440.04 890.993 2442.25 890.978C2444.04 890.966 2446.62 890.076 2448 889C2450.31 887.192 2452.21 887.043 2473.25 887.022C2485.76 887.01 2496 887.337 2496.01 887.75Z" fill="#f38b74"/>
<circle cx="610" cy="194" r="194" fill="#f38b74"/>
<circle cx="194" cy="890" r="194" fill="#f38b74"/>
<circle cx="610" cy="662" r="124" fill="#AB5A55"/>
<circle cx="194" cy="419" r="124" fill="#AB5A55"/>
<circle cx="189.5" cy="67.5" r="67.5" fill="#73333A"/>
<circle cx="609.5" cy="1016.5" r="67.5" fill="#73333A"/>
</svg>
